<?xml version="1.0" standalone="no"?>
<!DOCTYPE svg PUBLIC "-//W3C//DTD SVG 1.1//EN" "http://www.w3.org/Graphics/SVG/1.1/DTD/svg11.dtd" >
<svg xmlns="http://www.w3.org/2000/svg">
<metadata></metadata>
<defs>
<font id="futuramtvbold_italic" horiz-adv-x="1312" >
<font-face units-per-em="2048" ascent="1638" descent="-410" />
<missing-glyph horiz-adv-x="473" />
<glyph horiz-adv-x="2048" />
<glyph horiz-adv-x="2048" />
<glyph unicode="&#xd;" horiz-adv-x="2048" />
<glyph unicode=" "  horiz-adv-x="473" />
<glyph unicode="&#x09;" horiz-adv-x="473" />
<glyph unicode="&#xa0;" horiz-adv-x="473" />
<glyph unicode="!" horiz-adv-x="681" d="M143 162q0 80 54.5 133t134.5 53t133 -52t53 -134t-53 -136.5t-135 -54.5q-80 0 -133.5 55.5t-53.5 135.5zM190 461l144 905h346l-143 -905h-347z" />
<glyph unicode="&#x22;" horiz-adv-x="901" d="M242 821l55 545h225l-119 -545h-161zM606 821l58 545h225l-119 -545h-164z" />
<glyph unicode="#" d="M113 391l26 166h211l31 193q4 25 6 35t8 30q-20 -4 -30 -4h-187l27 166h213l61 389h187l-52 -328q-4 -23 -7 -34t-9 -31q23 4 33 4h225l62 389h188l-51 -328l-6 -34q-2 -10 -9 -31q23 4 33 4h180l-26 -166h-207l-31 -193q-4 -25 -6 -35t-10 -30q23 4 33 4h184l-25 -166 h-213l-61 -391h-191l54 330l6 32q2 12 8 33q-23 -4 -35 -4h-221l-63 -391h-187l53 330l7 32q2 12 8 33q-23 -4 -35 -4h-182zM532 553q23 4 33 4h226l30 193q4 25 6 35t9 30q-23 -4 -33 -4h-225l-31 -193q-4 -25 -6 -35t-9 -30z" />
<glyph unicode="$" d="M88 211l199 272q37 -53 64.5 -79.5t68.5 -53.5q98 -63 192 -63q59 0 97.5 32.5t38.5 86.5q0 47 -37 83q-10 10 -25.5 20.5t-48.5 33.5l-109 71q-59 39 -101 77t-68.5 78t-38 83t-11.5 96q0 90 30 167t83 134.5t128 93t165 48.5l33 188h188l-31 -186q53 -16 96 -31.5 t81 -37t72 -48.5t71 -64l-164 -254q-57 59 -123 94t-119 35q-55 0 -91 -29.5t-36 -74.5q0 -35 24.5 -64.5t61.5 -54t79 -46t77 -42.5q102 -63 148 -143t46 -195q0 -137 -69.5 -249.5t-186.5 -165.5q-23 -10 -42 -16.5t-40.5 -11.5t-50 -8t-69.5 -5l-35 -209h-191l35 204 q-248 45 -391 234z" />
<glyph unicode="%" horiz-adv-x="1888" d="M156 1022q0 76 29.5 143.5t80.5 118.5t119.5 80t146.5 29q80 0 150 -30t122 -80t81.5 -118.5t29.5 -146.5q0 -80 -29.5 -148.5t-81.5 -119t-122 -80t-150 -29.5q-86 0 -155.5 29.5t-118.5 82t-75.5 122t-26.5 147.5zM381 1020q0 -66 45 -112t109 -46q66 0 109.5 44 t43.5 110q0 68 -43.5 114t-109.5 46q-63 0 -108.5 -45.5t-45.5 -110.5zM395 -41l985 1448h185l-994 -1448h-176zM1040 352q0 76 30 144.5t81 119t118.5 80t145.5 29.5q80 0 148.5 -29.5t120 -81t81 -120t29.5 -148.5t-29.5 -147.5t-81 -118.5t-120 -80t-148.5 -29 q-78 0 -146.5 30t-118.5 82t-80 120.5t-30 148.5zM1266 350q0 -66 45 -113t108 -47q66 0 109 44.5t43 109.5q0 68 -43 114t-109 46t-109.5 -44t-43.5 -110z" />
<glyph unicode="&#x26;" horiz-adv-x="1550" d="M88 344q0 80 28.5 153.5t82.5 127.5q27 27 53.5 46t57 34.5t67.5 27.5t86 25q-8 10 -14.5 22.5t-16.5 28.5q-18 39 -30.5 66.5t-19.5 50t-9 43t-2 45.5q0 78 28.5 142.5t82 111.5t128 72.5t164.5 25.5q88 0 160 -23.5t124 -66.5t80.5 -103.5t28.5 -134.5 q0 -119 -76.5 -209t-240.5 -155l37 -37q12 -12 37 -41l104 -123q33 25 55.5 43.5t45 38.5t48 46t64.5 67l199 -209q-29 -31 -51.5 -54.5t-47 -44t-56.5 -43t-77 -53.5q12 -10 18.5 -16t16.5 -19l201 -229h-393l-95 104q-51 -35 -75.5 -50t-46.5 -25q-63 -33 -139.5 -51.5 t-155.5 -18.5q-207 0 -329 101.5t-122 283.5zM426 369q0 -66 41 -101t111 -35q49 0 92 18.5t110 63.5q-16 10 -22 17.5t-21 23.5l-168 195q-86 -51 -114.5 -92t-28.5 -90zM664 1026q0 -18 7 -43t25 -61l41 -74q82 53 119 100t37 90q0 45 -29.5 75t-77.5 30q-51 0 -86.5 -34 t-35.5 -83z" />
<glyph unicode="'" horiz-adv-x="534" d="M279 993l55 545h225l-119 -545h-161z" />
<glyph unicode="(" horiz-adv-x="696" d="M96 408q0 139 30 281t93.5 281.5t158.5 270.5t228 246l170 -137q-225 -199 -324.5 -429.5t-99.5 -514.5q0 -121 11.5 -223.5t35 -194.5t57 -175t81.5 -165l-211 -90q-127 203 -178.5 410.5t-51.5 439.5z" />
<glyph unicode=")" horiz-adv-x="698" d="M-72 -315q225 199 321.5 434t96.5 510q0 121 -11 223t-35 194.5t-58.5 175.5t-79.5 164l211 80q127 -205 178 -418.5t51 -431.5q0 -293 -117.5 -566t-382.5 -503z" />
<glyph unicode="*" horiz-adv-x="1077" d="M205 1038l129 45q25 8 40 14.5t28.5 10.5t28.5 8t38 10v4q-18 12 -31.5 21.5t-25 19t-25.5 19.5t-35 29l-108 88l116 139l107 -84q18 -16 31.5 -26.5t25 -19.5t22.5 -19.5t27 -26.5l5 2q2 23 3 38t3 28.5t4 29.5t6 41l20 131l191 -31l-21 -131q-6 -37 -11 -63.5 t-15 -73.5q45 18 70.5 27.5t58.5 21.5l125 41l67 -172l-131 -43q-25 -8 -41 -13t-30.5 -8t-30 -7.5t-37.5 -8.5v-6q18 -12 31.5 -21.5t26 -17.5t24.5 -18t31 -25l102 -84l-123 -145l-98 80q-35 29 -51.5 43t-46.5 43l-7 -2q-2 -23 -3 -37.5t-2 -27.5t-3 -29.5t-6 -40.5 l-20 -129l-189 30l21 129q6 37 10 63.5t14 71.5q-41 -16 -65.5 -25t-63.5 -24l-125 -43z" />
<glyph unicode="+" d="M164 575v218h389q8 0 22 -5q-4 14 -4 21v399h238v-399q0 -6 -4 -21q14 4 20 5h392v-218h-392q-6 0 -20 5q4 -14 4 -23v-399h-238v399q0 8 4 23q-14 -4 -22 -5h-389z" />
<glyph unicode="," horiz-adv-x="622" d="M-51 -279l203 596h350l-289 -596h-264z" />
<glyph unicode="-" horiz-adv-x="843" d="M84 350l49 303h635l-49 -303h-635z" />
<glyph unicode="." horiz-adv-x="634" d="M74 166q0 39 15 74.5t42 62.5t61.5 42t75.5 15q39 0 75 -15t62.5 -42t42 -62.5t15.5 -74.5q0 -41 -15.5 -76t-42 -61.5t-62.5 -42t-75 -15.5q-41 0 -75.5 15.5t-61.5 42t-42 61.5t-15 76z" />
<glyph unicode="/" horiz-adv-x="958" d="M-33 -41l791 1448h303l-791 -1448h-303z" />
<glyph unicode="0" d="M123 565q0 94 15.5 187.5t44 179.5t69.5 159.5t94 129.5q78 84 187.5 129t234.5 45q106 0 194.5 -35t149.5 -103q68 -74 105.5 -185t37.5 -236q0 -86 -11 -171t-32.5 -167t-54.5 -156t-74 -135q-158 -236 -469 -236q-233 0 -362 157t-129 437zM487 489q0 -238 144 -237 q115 0 180 154q16 39 31.5 100t27 128.5t17.5 135.5t6 123q0 100 -37.5 157.5t-103.5 57.5q-57 0 -99.5 -33t-77.5 -102q-18 -41 -34.5 -98.5t-28.5 -122t-18.5 -133t-6.5 -130.5z" />
<glyph unicode="1" d="M391 1063l80 303h539l-217 -1366h-365l158 1001q4 25 6 35.5t8 30.5q-23 -4 -35 -4h-174z" />
<glyph unicode="2" d="M29 0l682 721q14 14 36.5 38.5t43 56.5t35 72t14.5 87q0 53 -38 87t-97 34q-74 0 -116 -47.5t-59 -151.5h-350q6 100 34 175t83 142q147 180 428 181q227 0 355 -101.5t128 -306.5q0 -78 -19.5 -145.5t-54 -128t-82.5 -116.5t-104 -110l-94 -90q-18 -18 -31.5 -29.5 t-27 -21.5t-27.5 -20.5t-35 -24.5l4 -8q35 4 58.5 7t46 4t48 2t62.5 1h193l-49 -307h-1067z" />
<glyph unicode="3" d="M123 477h350q4 -111 46 -160t147 -49q57 0 98 44t41 120q0 80 -49 117t-160 37l39 248q16 -2 33 -3h30q86 0 129 45.5t43 110.5q0 59 -37.5 96t-101.5 37q-127 0 -158 -139h-342q6 92 46 168t107 130t157 85t196 31q221 0 341 -100.5t120 -262.5q0 -117 -62.5 -205 t-179.5 -120l-2 -9q106 -57 151.5 -122.5t45.5 -167.5q0 -100 -37 -181.5t-104.5 -137.5t-163.5 -87t-215 -31q-158 0 -270.5 56.5t-172.5 167.5q-31 57 -46 123.5t-19 158.5z" />
<glyph unicode="4" d="M49 303l39 246l674 817h436l-113 -723q-4 -25 -6 -35t-8 -30q23 4 33 4h143l-45 -279h-170l-49 -303h-334l39 242q4 25 6 35t8 30q-23 -4 -34 -4h-619zM428 580l2 -9q27 2 43 4l35 5q18 2 37 2h198l43 258q8 45 15.5 77.5t15.5 62.5t18.5 62.5t24.5 77.5l-10 6 q-31 -47 -52.5 -79.5t-42 -61.5t-43 -60.5t-59.5 -78.5l-84 -109q-23 -31 -39 -50t-30.5 -34.5t-30.5 -31.5z" />
<glyph unicode="5" d="M88 109l86 299q55 -39 119 -68q53 -25 123.5 -45.5t146.5 -20.5q109 0 166 55.5t57 153.5q0 96 -67.5 149.5t-190.5 53.5q-66 0 -130 -11t-154 -36l213 727h731l-53 -299h-455l-27 -100q-10 -29 -16 -43.5t-23 -42.5l7 -4q35 18 65.5 25t69.5 7q88 0 159.5 -28.5t123 -82 t79 -129t27.5 -167.5q0 -121 -40 -218.5t-113.5 -167t-179 -107.5t-237.5 -38q-111 0 -198.5 20.5t-153.5 47.5q-76 31 -135 70z" />
<glyph unicode="6" d="M113 444q0 68 12 132.5t44 135t88 151.5t142 184q41 49 76 86.5t69 74.5t70 74l84 84h451l-248 -268q-35 -37 -59.5 -62.5t-47 -48t-49 -45t-65.5 -53.5l6 -8q8 4 23 8q12 4 33.5 6t56.5 2q98 0 171.5 -34t123 -92t75 -136t25.5 -166q0 -109 -34 -201t-103.5 -157.5 t-173 -102.5t-242.5 -37q-115 0 -212 34t-168 96.5t-109.5 149.5t-38.5 193zM449 459q0 -84 57 -141.5t141 -57.5q90 0 147.5 57.5t57.5 143.5q0 43 -15.5 78.5t-42 63.5t-63.5 43.5t-80 15.5t-79.5 -16.5t-64.5 -44.5t-43 -64.5t-15 -77.5z" />
<glyph unicode="7" d="M70 0l575 846q23 35 39 60.5t30.5 48t31 45t38.5 51.5l-4 6q-37 -4 -62.5 -5t-50 -2t-53.5 -1h-395l51 317h1119l-879 -1366h-440z" />
<glyph unicode="8" d="M102 379q0 141 92.5 232t251.5 110l3 10q-90 47 -135.5 123t-45.5 164q0 82 35 151.5t98.5 119.5t151.5 78t192 28q211 0 330 -94.5t119 -260.5q0 -113 -68.5 -192.5t-203.5 -112.5v-10q256 -61 256 -309q0 -98 -41 -180t-116 -140.5t-179.5 -91.5t-231.5 -33 q-117 0 -211 29t-159.5 82t-101.5 128t-36 169zM463 406q0 -78 43 -121t119 -43q90 0 142 53t52 139q0 76 -45 122t-121 46q-84 0 -137 -55t-53 -141zM571 991q0 -72 40 -111.5t106 -39.5q76 0 124 46t48 134q0 59 -41.5 99t-102.5 40q-76 0 -125 -49t-49 -119z" />
<glyph unicode="9" d="M186 885q0 113 41 207t114 161.5t174 104.5t224 37q117 0 214.5 -34t166 -96.5t106.5 -150.5t38 -194q0 -113 -51.5 -242t-168.5 -283q-49 -66 -106 -133t-113 -125l-57 -57q-35 -35 -82 -80h-459l260 272q33 35 57.5 62.5t48 54.5t48.5 52.5t61 54.5l-4 8 q-68 -25 -118 -25q-86 0 -159 30t-125 83t-81 128t-29 165zM526 901q0 -86 57.5 -143.5t145.5 -57.5q90 0 145.5 56.5t55.5 144.5q0 92 -54.5 146.5t-146.5 54.5q-90 0 -146.5 -56.5t-56.5 -144.5z" />
<glyph unicode=":" horiz-adv-x="634" d="M109 166q0 39 15 74.5t42 62.5t61.5 42t75.5 15q39 0 75 -15t62.5 -42t42 -62.5t15.5 -74.5q0 -41 -15.5 -76t-42 -61.5t-62.5 -42t-75 -15.5q-41 0 -75.5 15.5t-61.5 42t-42 61.5t-15 76zM203 725q0 39 15 75t42 62.5t61.5 42t75.5 15.5q39 0 75 -15.5t62.5 -42 t42 -62.5t15.5 -75q0 -41 -15.5 -77t-42 -62.5t-62.5 -42t-75 -15.5q-41 0 -75.5 15.5t-61.5 42t-42 62.5t-15 77z" />
<glyph unicode=";" horiz-adv-x="774" d="M51 -279l203 596h350l-289 -596h-264zM297 735q0 39 15.5 75t42 62.5t61.5 42t76 15.5q39 0 74.5 -15.5t62 -42t42 -62.5t15.5 -75q0 -82 -56.5 -139t-137.5 -57q-41 0 -76 15t-61.5 42t-42 62.5t-15.5 76.5z" />
<glyph unicode="&#x3c;" d="M227 575v216l848 471v-244l-473 -252q-29 -16 -47 -27l-35 -16q-16 -8 -34.5 -16.5t-45.5 -20.5v-8q27 -12 45.5 -20.5t35 -15.5t34.5 -17.5t47 -24.5l473 -252v-244z" />
<glyph unicode="=" d="M188 379v215h1004v-215h-1004zM188 772v215h1004v-215h-1004z" />
<glyph unicode="&#x3e;" d="M303 104v244l475 252q29 14 48.5 24.5t36 18.5t34.5 16.5t45 18.5v10q-27 10 -45 18.5t-34.5 16.5t-36 17.5t-48.5 25.5l-475 252v244l848 -471v-216z" />
<glyph unicode="?" horiz-adv-x="1114" d="M182 1014q6 86 44 158.5t100.5 125t147.5 81t183 28.5q100 0 182.5 -26.5t139.5 -78t88 -123t31 -161.5q0 -98 -32 -177t-91 -126q-47 -41 -101.5 -57.5t-148.5 -22.5l-27 -154h-317l57 359q27 -2 47.5 -3t32.5 -1q16 -2 33 -2h27q92 0 143 44t51 123q0 59 -33.5 93 t-97.5 34q-55 0 -84 -24.5t-53 -89.5h-322zM324 158q0 39 14 73.5t39.5 60t60.5 40t74 14.5t72.5 -15.5t60.5 -41t42 -60t15 -71.5q0 -80 -56 -133.5t-136 -53.5q-78 0 -132 53.5t-54 133.5z" />
<glyph unicode="@" horiz-adv-x="2445" d="M244 365q0 229 106 430q76 145 189.5 249.5t252 172t293 100.5t312.5 33q156 0 308.5 -51.5t273 -147.5t195.5 -234.5t75 -312.5q0 -94 -17.5 -182t-57.5 -164t-102.5 -136.5t-154.5 -98.5q-61 -27 -127 -39.5t-131 -12.5q-27 0 -70 4.5t-86 16.5t-78.5 32.5t-48.5 51.5 q-23 -27 -56.5 -46.5t-72.5 -32.5t-78 -19.5t-71 -6.5q-78 0 -131.5 29t-86 76t-47 110.5t-14.5 130.5q0 115 36 222.5t104.5 190.5t166 133t220.5 50q78 0 165.5 -14t163.5 -39l-73 -463q-4 -31 -7.5 -60.5t-3.5 -60.5q0 -49 35 -70.5t78 -21.5q74 0 126 37t86 92.5t50 123 t16 128.5q0 117 -40 223q-37 92 -96.5 159t-134.5 110t-164 62.5t-185 19.5q-121 0 -237.5 -30t-219 -88t-185.5 -143t-138 -196q-33 -68 -51.5 -139.5t-18.5 -145.5q0 -315 159.5 -478t483.5 -163q98 0 203.5 7.5t204.5 35.5l43 -207q-117 -31 -250 -41t-250 -10 q-197 0 -355.5 54.5t-271 159t-174 258t-61.5 352.5zM1063 322q0 -31 4 -57.5t16.5 -47t35 -33t57.5 -12.5q41 0 73.5 18.5t59.5 51.5q0 2 7 12t9 12l76 436l-37 9q-18 4 -37 4q-68 0 -118 -41t-81.5 -100.5t-48 -128t-16.5 -123.5z" />
<glyph unicode="A" horiz-adv-x="1474" d="M-59 0l700 1366h457l288 -1366h-374l-51 270h-486l-121 -270h-413zM608 569q51 4 80 4h182q14 0 41 -4q-8 27 -11 40.5t-7 41.5l-29 166q-8 49 -13 82t-8 63.5t-4 64.5t-3 81l-13 2q-14 -49 -24.5 -84t-20.5 -65.5t-24.5 -63.5t-34.5 -80l-43 -96q-10 -25 -17.5 -42 t-14.5 -33.5t-15 -34t-21 -42.5z" />
<glyph unicode="B" horiz-adv-x="1370" d="M84 0l217 1366h535q43 0 94 -6t92 -17q111 -29 173 -109.5t62 -199.5q0 -74 -27.5 -138.5t-78.5 -107.5q-29 -23 -59.5 -37t-81.5 -30v-8q131 -47 185 -112.5t54 -178.5q0 -102 -42 -191.5t-117 -146.5q-57 -45 -137.5 -64.5t-196.5 -19.5h-672zM498 274q23 4 32 5h115 q66 0 104.5 8t61.5 26q59 43 59 121q0 39 -17 70t-46 47q-16 10 -51 15t-78 5h-127l-39 -231q-4 -25 -6 -35t-8 -31zM586 836q23 4 32 4h105q59 0 85 6t48 28q39 39 39 99q0 112 -137 112h-2h-125l-31 -184l-6 -35q-2 -10 -8 -30z" />
<glyph unicode="C" horiz-adv-x="1271" d="M125 618q0 168 58.5 316.5t168.5 259.5q209 213 527 213q264 0 436 -109l-53 -342q-43 33 -99 60q-47 23 -116.5 41t-161.5 18q-84 0 -155 -32.5t-121 -91t-77.5 -140.5t-27.5 -178q0 -166 97 -258t282 -92q78 0 145.5 19.5t138.5 59.5l-55 -344q-39 -18 -90 -30 q-43 -10 -103.5 -19.5t-134.5 -9.5q-152 0 -273.5 46t-207.5 132t-132 208t-46 273z" />
<glyph unicode="D" horiz-adv-x="1449" d="M86 0l217 1366h479q160 0 274.5 -45t188.5 -127t109 -195.5t35 -250.5q0 -113 -29 -218.5t-81 -194.5t-127 -157.5t-165 -111.5q-74 -35 -155.5 -50.5t-184.5 -15.5h-561zM504 309q18 4 26 4h80q104 0 171 20.5t114 67.5q59 59 93 155.5t34 213.5q0 141 -75 215t-216 74 h-102l-111 -684l-6 -35q-2 -10 -8 -31z" />
<glyph unicode="E" horiz-adv-x="1097" d="M88 0l217 1366h793l-49 -313h-418l-27 -150l-6 -35q-2 -10 -8 -32q23 4 33 4h391l-53 -305h-414l-27 -160l-6 -35q-2 -10 -8 -31q23 4 33 4h387l-49 -313h-789z" />
<glyph unicode="F" horiz-adv-x="1009" d="M84 0l217 1366h760l-53 -328h-383l-27 -149q-4 -25 -6 -35t-8 -33q23 4 32 4h336l-49 -309h-362l-86 -516h-371z" />
<glyph unicode="G" horiz-adv-x="1605" d="M135 637q0 166 55.5 312.5t159.5 252.5q98 98 232.5 151.5t306.5 53.5q193 0 338 -75t231 -226l-262 -201q-59 100 -136 141t-169 41q-100 0 -171 -40.5t-116 -106.5t-65.5 -148.5t-20.5 -166.5q0 -156 79 -245t222 -89q102 0 170 50t111 148q-23 -2 -39.5 -3t-30.5 -2 t-33 -1h-190l47 295h686q-4 -70 -11 -126t-18.5 -105t-28 -93t-36.5 -89q-92 -193 -258 -299.5t-383 -106.5q-150 0 -273.5 49t-212 139.5t-136.5 214t-48 275.5z" />
<glyph unicode="H" horiz-adv-x="1540" d="M86 0l217 1366h371l-72 -451q-4 -25 -8 -34l-8 -31q23 4 32 4h449l82 512h369l-218 -1366h-368l74 473q4 25 6 35l10 31q-23 -4 -35 -4h-446l-86 -535h-369z" />
<glyph unicode="I" horiz-adv-x="696" d="M88 0l217 1366h371l-219 -1366h-369z" />
<glyph unicode="J" horiz-adv-x="968" d="M-18 104l176 273q55 -88 137 -88q33 0 56.5 10t42 38t31.5 74t26 119l133 836h370l-155 -981q-35 -211 -152 -319.5t-303 -108.5q-111 0 -206 38t-156 109z" />
<glyph unicode="K" horiz-adv-x="1449" d="M84 0l217 1366h371l-45 -276q-8 -53 -14.5 -89t-13.5 -68t-16.5 -65.5t-21.5 -83.5l10 -4q31 39 51.5 66.5t41 52.5t45 52.5t59.5 68.5l305 346h447l-631 -680l461 -686h-435l-239 385q-25 39 -41.5 66.5t-29.5 52t-26.5 51.5t-31.5 66h-8q-2 -43 -4.5 -74t-5.5 -58.5 t-8 -59.5t-11 -77l-57 -352h-369z" />
<glyph unicode="L" horiz-adv-x="1009" d="M86 0l217 1366h371l-158 -983q-4 -25 -6 -35t-8 -31q23 4 33 5h376l-51 -322h-774z" />
<glyph unicode="M" horiz-adv-x="1918" d="M-16 0l436 1366h409l76 -369l21 -102q8 -41 14 -78t11 -78t12 -98l10 -2q20 55 34.5 93t30 72t34 72.5t46.5 94.5l197 395h403l62 -1366h-371l-8 672q0 23 4 88t10 141l-10 2q-27 -68 -46.5 -116t-39 -92t-42 -92t-56.5 -118l-244 -485h-189l-96 449q-16 72 -25.5 123 t-16.5 97t-13 95t-14 121h-13q-14 -70 -24.5 -119t-22.5 -94t-26.5 -94.5t-36.5 -120.5l-142 -457h-374z" />
<glyph unicode="N" horiz-adv-x="1601" d="M84 0l217 1366h420l225 -582q27 -70 45.5 -118t33.5 -92t29.5 -92t32.5 -117l11 2q2 72 5 121t7 95t10 98t17 126l75 559h371l-221 -1366h-416l-225 575q-27 70 -45.5 118t-33.5 92t-29.5 92.5t-32.5 115.5l-13 -2q-2 -72 -5 -121t-7 -95t-10 -97t-17 -125l-75 -553h-369 z" />
<glyph unicode="O" horiz-adv-x="1716" d="M135 627q0 287 154 489q111 143 273.5 217t379.5 74q166 0 286 -42t210 -134q92 -94 140 -224t48 -280q0 -121 -41 -249t-112 -226q-100 -139 -274.5 -216t-391.5 -77q-137 0 -259 43t-214 127t-145.5 209t-53.5 289zM528 635q0 -143 74 -223q45 -49 111.5 -77t138.5 -28 q84 0 154.5 33t121 91t79 139t28.5 178q0 156 -82.5 243.5t-232.5 87.5q-84 0 -156 -33.5t-124 -93t-82 -141.5t-30 -176z" />
<glyph unicode="P" horiz-adv-x="1294" d="M92 0l217 1366h424q117 0 214 -21.5t167 -62.5q76 -45 122 -132t46 -185q0 -123 -37 -222.5t-102 -160.5q-59 -55 -138 -81t-192 -26h-276l-76 -475h-369zM580 766q20 4 30 4h90q49 0 78 5t49 18q29 18 45.5 54t16.5 79q0 137 -166 137h-90l-39 -232q-4 -25 -6 -35 t-8 -30z" />
<glyph unicode="Q" horiz-adv-x="1710" d="M137 627q0 174 53.5 308t163.5 245q231 227 578 227q158 0 284.5 -45t217 -130t138.5 -204t48 -266q0 -123 -34 -234.5t-99 -203.5q-25 -37 -52.5 -66t-80.5 -76l231 -317h-393l-109 141q-66 -18 -124 -26.5t-132 -8.5q-164 0 -283.5 41t-213.5 131q-98 92 -145.5 208 t-47.5 276zM518 641q0 -190 129 -276q41 -29 91 -38.5t141 -13.5q-18 20 -31.5 33.5t-25 26t-25 28t-33.5 39.5l-109 133h396l43 -63q16 -23 22 -35t17 -35q29 41 48 76t30.5 68.5t16.5 67.5t5 73q0 160 -83 250t-230 90q-86 0 -160 -33t-128 -89t-84 -134t-30 -168z" />
<glyph unicode="R" d="M68 0l219 1366h465q497 0 497 -403q0 -176 -94 -287t-268 -139q10 -16 16 -27l15 -21q8 -10 15 -22t17 -31l256 -436h-426l-141 289q-23 47 -38 79.5t-27.5 61.5t-23.5 61.5t-28 79.5l-10 -2q-2 -49 -4 -83.5t-6 -66.5t-9.5 -67t-13.5 -86l-43 -266h-368zM557 784 q23 4 33 4h100q168 0 168 146q0 119 -135 119h-119l-31 -203q-4 -23 -7 -34t-9 -32z" />
<glyph unicode="S" horiz-adv-x="1142" d="M16 188l185 273q84 -92 164.5 -132t173.5 -40q63 0 95 31.5t32 70.5q0 55 -41 93t-115 83q-61 37 -116.5 73t-97.5 81t-66.5 105.5t-24.5 144.5q0 86 31.5 166t93 139t148.5 95t198 36q137 0 243.5 -41t204.5 -131l-166 -268q-72 72 -132 98.5t-121 26.5q-59 0 -88 -28 t-29 -63q0 -49 33.5 -79.5t87.5 -65.5l137 -88q98 -63 153.5 -148t55.5 -206q0 -102 -37 -186.5t-104.5 -143.5t-159.5 -92t-203 -33q-156 0 -292 53.5t-243 175.5z" />
<glyph unicode="T" horiz-adv-x="1110" d="M174 1044l51 322h944l-51 -322h-284l-168 -1044h-369l156 983q4 25 6 35t10 31q-23 -4 -35 -5h-260z" />
<glyph unicode="U" horiz-adv-x="1474" d="M160 422q0 45 4 93t12 95l123 756h373l-127 -807q-4 -23 -5 -47.5t-1 -46.5q0 -170 182 -170q59 0 103 16.5t76 52t52.5 94t34.5 142.5l123 766h369l-136 -856q-37 -219 -141 -356q-80 -104 -195.5 -149.5t-301.5 -45.5q-141 0 -254 39t-185 111q-106 109 -106 313z" />
<glyph unicode="V" horiz-adv-x="1435" d="M150 1366h393l121 -582q14 -66 22 -109.5t15.5 -83.5t12.5 -82t13 -103l10 -3q18 57 32.5 98.5t29 79t32 79.5t43.5 102l267 604h418l-721 -1366h-324z" />
<glyph unicode="W" horiz-adv-x="2084" d="M162 1366h368l54 -514q8 -74 12 -125t7 -96t4 -94.5t1 -118.5l13 -2q20 66 36.5 111.5t33 88.5t37 90.5t50.5 114.5l242 545h328l32 -520q4 -72 7.5 -134.5t3.5 -90.5v-105q0 -25 -1 -52.5t-4 -64.5l13 -2q25 68 42 115t34.5 91t39 92t52.5 116l260 555h379l-670 -1366 h-381l-33 465q-4 72 -8 136.5t-4 90.5v150q0 37 2 76l-12 2q-23 -70 -40.5 -119t-33.5 -93t-36.5 -93.5t-51.5 -116.5l-225 -498h-381z" />
<glyph unicode="X" horiz-adv-x="1507" d="M-53 0l618 748l-372 618h421l127 -250q12 -27 21.5 -43t15.5 -33l13 -30q6 -14 16 -39h6q12 23 20.5 37t17.5 28.5t19 28.5l27 41l174 260h465l-543 -661l424 -705h-426l-172 338q-12 27 -20 43t-14.5 29.5t-12.5 28t-14 36.5h-6q-12 -20 -21.5 -33.5t-17.5 -27 t-19.5 -27.5t-25.5 -37l-252 -350h-469z" />
<glyph unicode="Y" horiz-adv-x="1388" d="M150 1366h421l91 -248q14 -41 24 -68.5t17.5 -51t15.5 -50t20 -63.5h6q18 33 33 56.5t28 45t28.5 46t39.5 61.5l183 272h452l-614 -760l-104 -606h-371l94 610z" />
<glyph unicode="Z" horiz-adv-x="1308" d="M-43 0l625 864q27 37 43 59.5t31.5 42t33 40t41.5 49.5l-2 8q-41 -4 -67.5 -5t-52 -3t-54.5 -2h-340l41 313h1094l-615 -856q-25 -35 -42 -57.5t-32.5 -43t-33 -41t-41.5 -49.5l4 -6q39 2 65.5 4t51 3.5t53.5 1.5h444l-51 -322h-1196z" />
<glyph unicode="[" horiz-adv-x="677" d="M-6 -395l289 1827h475l-27 -160h-221l-227 -1444q-4 -23 -7.5 -34t-9.5 -32q23 4 33 5h193l-27 -162h-471z" />
<glyph unicode="\" horiz-adv-x="958" d="M197 1407h303l327 -1448h-305z" />
<glyph unicode="]" horiz-adv-x="677" d="M-59 -395l26 162h219l228 1441l6 33q2 12 8 33q-23 -4 -35 -4h-190l26 162h471l-288 -1827h-471z" />
<glyph unicode="^" d="M166 854l534 684h218l317 -684h-279l-133 301q-20 45 -29.5 66.5t-23.5 62.5h-6q-14 -20 -23.5 -34.5t-18.5 -28t-20.5 -28.5t-29.5 -38l-228 -301h-278z" />
<glyph unicode="_" horiz-adv-x="1001" d="M27 -317h948v-195h-948v195z" />
<glyph unicode="`" horiz-adv-x="1085" d="M299 1438h348l139 -305h-251z" />
<glyph unicode="a" horiz-adv-x="1474" d="M-59 0l700 1366h457l288 -1366h-374l-51 270h-486l-121 -270h-413zM608 569q51 4 80 4h182q14 0 41 -4q-8 27 -11 40.5t-7 41.5l-29 166q-8 49 -13 82t-8 63.5t-4 64.5t-3 81l-13 2q-14 -49 -24.5 -84t-20.5 -65.5t-24.5 -63.5t-34.5 -80l-43 -96q-10 -25 -17.5 -42 t-14.5 -33.5t-15 -34t-21 -42.5z" />
<glyph unicode="b" horiz-adv-x="1370" d="M84 0l217 1366h535q43 0 94 -6t92 -17q111 -29 173 -109.5t62 -199.5q0 -74 -27.5 -138.5t-78.5 -107.5q-29 -23 -59.5 -37t-81.5 -30v-8q131 -47 185 -112.5t54 -178.5q0 -102 -42 -191.5t-117 -146.5q-57 -45 -137.5 -64.5t-196.5 -19.5h-672zM498 274q23 4 32 5h115 q66 0 104.5 8t61.5 26q59 43 59 121q0 39 -17 70t-46 47q-16 10 -51 15t-78 5h-127l-39 -231q-4 -25 -6 -35t-8 -31zM586 836q23 4 32 4h105q59 0 85 6t48 28q39 39 39 99q0 112 -137 112h-2h-125l-31 -184l-6 -35q-2 -10 -8 -30z" />
<glyph unicode="c" horiz-adv-x="1271" d="M125 618q0 168 58.5 316.5t168.5 259.5q209 213 527 213q264 0 436 -109l-53 -342q-43 33 -99 60q-47 23 -116.5 41t-161.5 18q-84 0 -155 -32.5t-121 -91t-77.5 -140.5t-27.5 -178q0 -166 97 -258t282 -92q78 0 145.5 19.5t138.5 59.5l-55 -344q-39 -18 -90 -30 q-43 -10 -103.5 -19.5t-134.5 -9.5q-152 0 -273.5 46t-207.5 132t-132 208t-46 273z" />
<glyph unicode="d" horiz-adv-x="1449" d="M86 0l217 1366h479q160 0 274.5 -45t188.5 -127t109 -195.5t35 -250.5q0 -113 -29 -218.5t-81 -194.5t-127 -157.5t-165 -111.5q-74 -35 -155.5 -50.5t-184.5 -15.5h-561zM504 309q18 4 26 4h80q104 0 171 20.5t114 67.5q59 59 93 155.5t34 213.5q0 141 -75 215t-216 74 h-102l-111 -684l-6 -35q-2 -10 -8 -31z" />
<glyph unicode="e" horiz-adv-x="1097" d="M88 0l217 1366h793l-49 -313h-418l-27 -150l-6 -35q-2 -10 -8 -32q23 4 33 4h391l-53 -305h-414l-27 -160l-6 -35q-2 -10 -8 -31q23 4 33 4h387l-49 -313h-789z" />
<glyph unicode="f" horiz-adv-x="1009" d="M84 0l217 1366h760l-53 -328h-383l-27 -149q-4 -25 -6 -35t-8 -33q23 4 32 4h336l-49 -309h-362l-86 -516h-371z" />
<glyph unicode="g" horiz-adv-x="1605" d="M135 637q0 166 55.5 312.5t159.5 252.5q98 98 232.5 151.5t306.5 53.5q193 0 338 -75t231 -226l-262 -201q-59 100 -136 141t-169 41q-100 0 -171 -40.5t-116 -106.5t-65.5 -148.5t-20.5 -166.5q0 -156 79 -245t222 -89q102 0 170 50t111 148q-23 -2 -39.5 -3t-30.5 -2 t-33 -1h-190l47 295h686q-4 -70 -11 -126t-18.5 -105t-28 -93t-36.5 -89q-92 -193 -258 -299.5t-383 -106.5q-150 0 -273.5 49t-212 139.5t-136.5 214t-48 275.5z" />
<glyph unicode="h" horiz-adv-x="1540" d="M86 0l217 1366h371l-72 -451q-4 -25 -8 -34l-8 -31q23 4 32 4h449l82 512h369l-218 -1366h-368l74 473q4 25 6 35l10 31q-23 -4 -35 -4h-446l-86 -535h-369z" />
<glyph unicode="i" horiz-adv-x="696" d="M88 0l217 1366h371l-219 -1366h-369z" />
<glyph unicode="j" horiz-adv-x="968" d="M-18 104l176 273q55 -88 137 -88q33 0 56.5 10t42 38t31.5 74t26 119l133 836h370l-155 -981q-35 -211 -152 -319.5t-303 -108.5q-111 0 -206 38t-156 109z" />
<glyph unicode="k" horiz-adv-x="1449" d="M84 0l217 1366h371l-45 -276q-8 -53 -14.5 -89t-13.5 -68t-16.5 -65.5t-21.5 -83.5l10 -4q31 39 51.5 66.5t41 52.5t45 52.5t59.5 68.5l305 346h447l-631 -680l461 -686h-435l-239 385q-25 39 -41.5 66.5t-29.5 52t-26.5 51.5t-31.5 66h-8q-2 -43 -4.5 -74t-5.5 -58.5 t-8 -59.5t-11 -77l-57 -352h-369z" />
<glyph unicode="l" horiz-adv-x="1009" d="M86 0l217 1366h371l-158 -983q-4 -25 -6 -35t-8 -31q23 4 33 5h376l-51 -322h-774z" />
<glyph unicode="m" horiz-adv-x="1918" d="M-16 0l436 1366h409l76 -369l21 -102q8 -41 14 -78t11 -78t12 -98l10 -2q20 55 34.5 93t30 72t34 72.5t46.5 94.5l197 395h403l62 -1366h-371l-8 672q0 23 4 88t10 141l-10 2q-27 -68 -46.5 -116t-39 -92t-42 -92t-56.5 -118l-244 -485h-189l-96 449q-16 72 -25.5 123 t-16.5 97t-13 95t-14 121h-13q-14 -70 -24.5 -119t-22.5 -94t-26.5 -94.5t-36.5 -120.5l-142 -457h-374z" />
<glyph unicode="n" horiz-adv-x="1601" d="M84 0l217 1366h420l225 -582q27 -70 45.5 -118t33.5 -92t29.5 -92t32.5 -117l11 2q2 72 5 121t7 95t10 98t17 126l75 559h371l-221 -1366h-416l-225 575q-27 70 -45.5 118t-33.5 92t-29.5 92.5t-32.5 115.5l-13 -2q-2 -72 -5 -121t-7 -95t-10 -97t-17 -125l-75 -553h-369 z" />
<glyph unicode="o" horiz-adv-x="1716" d="M135 627q0 287 154 489q111 143 273.5 217t379.5 74q166 0 286 -42t210 -134q92 -94 140 -224t48 -280q0 -121 -41 -249t-112 -226q-100 -139 -274.5 -216t-391.5 -77q-137 0 -259 43t-214 127t-145.5 209t-53.5 289zM528 635q0 -143 74 -223q45 -49 111.5 -77t138.5 -28 q84 0 154.5 33t121 91t79 139t28.5 178q0 156 -82.5 243.5t-232.5 87.5q-84 0 -156 -33.5t-124 -93t-82 -141.5t-30 -176z" />
<glyph unicode="p" horiz-adv-x="1294" d="M92 0l217 1366h424q117 0 214 -21.5t167 -62.5q76 -45 122 -132t46 -185q0 -123 -37 -222.5t-102 -160.5q-59 -55 -138 -81t-192 -26h-276l-76 -475h-369zM580 766q20 4 30 4h90q49 0 78 5t49 18q29 18 45.5 54t16.5 79q0 137 -166 137h-90l-39 -232q-4 -25 -6 -35 t-8 -30z" />
<glyph unicode="q" horiz-adv-x="1710" d="M137 627q0 174 53.5 308t163.5 245q231 227 578 227q158 0 284.5 -45t217 -130t138.5 -204t48 -266q0 -123 -34 -234.5t-99 -203.5q-25 -37 -52.5 -66t-80.5 -76l231 -317h-393l-109 141q-66 -18 -124 -26.5t-132 -8.5q-164 0 -283.5 41t-213.5 131q-98 92 -145.5 208 t-47.5 276zM518 641q0 -190 129 -276q41 -29 91 -38.5t141 -13.5q-18 20 -31.5 33.5t-25 26t-25 28t-33.5 39.5l-109 133h396l43 -63q16 -23 22 -35t17 -35q29 41 48 76t30.5 68.5t16.5 67.5t5 73q0 160 -83 250t-230 90q-86 0 -160 -33t-128 -89t-84 -134t-30 -168z" />
<glyph unicode="r" d="M68 0l219 1366h465q497 0 497 -403q0 -176 -94 -287t-268 -139q10 -16 16 -27l15 -21q8 -10 15 -22t17 -31l256 -436h-426l-141 289q-23 47 -38 79.5t-27.5 61.5t-23.5 61.5t-28 79.5l-10 -2q-2 -49 -4 -83.5t-6 -66.5t-9.5 -67t-13.5 -86l-43 -266h-368zM557 784 q23 4 33 4h100q168 0 168 146q0 119 -135 119h-119l-31 -203q-4 -23 -7 -34t-9 -32z" />
<glyph unicode="s" horiz-adv-x="1142" d="M16 188l185 273q84 -92 164.5 -132t173.5 -40q63 0 95 31.5t32 70.5q0 55 -41 93t-115 83q-61 37 -116.5 73t-97.5 81t-66.5 105.5t-24.5 144.5q0 86 31.5 166t93 139t148.5 95t198 36q137 0 243.5 -41t204.5 -131l-166 -268q-72 72 -132 98.5t-121 26.5q-59 0 -88 -28 t-29 -63q0 -49 33.5 -79.5t87.5 -65.5l137 -88q98 -63 153.5 -148t55.5 -206q0 -102 -37 -186.5t-104.5 -143.5t-159.5 -92t-203 -33q-156 0 -292 53.5t-243 175.5z" />
<glyph unicode="t" horiz-adv-x="1110" d="M174 1044l51 322h944l-51 -322h-284l-168 -1044h-369l156 983q4 25 6 35t10 31q-23 -4 -35 -5h-260z" />
<glyph unicode="u" horiz-adv-x="1474" d="M160 422q0 45 4 93t12 95l123 756h373l-127 -807q-4 -23 -5 -47.5t-1 -46.5q0 -170 182 -170q59 0 103 16.5t76 52t52.5 94t34.5 142.5l123 766h369l-136 -856q-37 -219 -141 -356q-80 -104 -195.5 -149.5t-301.5 -45.5q-141 0 -254 39t-185 111q-106 109 -106 313z" />
<glyph unicode="v" horiz-adv-x="1435" d="M150 1366h393l121 -582q14 -66 22 -109.5t15.5 -83.5t12.5 -82t13 -103l10 -3q18 57 32.5 98.5t29 79t32 79.5t43.5 102l267 604h418l-721 -1366h-324z" />
<glyph unicode="w" horiz-adv-x="2084" d="M162 1366h368l54 -514q8 -74 12 -125t7 -96t4 -94.5t1 -118.5l13 -2q20 66 36.5 111.5t33 88.5t37 90.5t50.5 114.5l242 545h328l32 -520q4 -72 7.5 -134.5t3.5 -90.5v-105q0 -25 -1 -52.5t-4 -64.5l13 -2q25 68 42 115t34.5 91t39 92t52.5 116l260 555h379l-670 -1366 h-381l-33 465q-4 72 -8 136.5t-4 90.5v150q0 37 2 76l-12 2q-23 -70 -40.5 -119t-33.5 -93t-36.5 -93.5t-51.5 -116.5l-225 -498h-381z" />
<glyph unicode="x" horiz-adv-x="1507" d="M-53 0l618 748l-372 618h421l127 -250q12 -27 21.5 -43t15.5 -33l13 -30q6 -14 16 -39h6q12 23 20.5 37t17.5 28.5t19 28.5l27 41l174 260h465l-543 -661l424 -705h-426l-172 338q-12 27 -20 43t-14.5 29.5t-12.5 28t-14 36.5h-6q-12 -20 -21.5 -33.5t-17.5 -27 t-19.5 -27.5t-25.5 -37l-252 -350h-469z" />
<glyph unicode="y" horiz-adv-x="1388" d="M150 1366h421l91 -248q14 -41 24 -68.5t17.5 -51t15.5 -50t20 -63.5h6q18 33 33 56.5t28 45t28.5 46t39.5 61.5l183 272h452l-614 -760l-104 -606h-371l94 610z" />
<glyph unicode="z" horiz-adv-x="1308" d="M-43 0l625 864q27 37 43 59.5t31.5 42t33 40t41.5 49.5l-2 8q-41 -4 -67.5 -5t-52 -3t-54.5 -2h-340l41 313h1094l-615 -856q-25 -35 -42 -57.5t-32.5 -43t-33 -41t-41.5 -49.5l4 -6q39 2 65.5 4t51 3.5t53.5 1.5h444l-51 -322h-1196z" />
<glyph unicode="{" horiz-adv-x="718" d="M102 436l27 162q63 16 96 56t45 120l56 356q25 158 96.5 230t202.5 72h172l-6 -162h-23q-45 0 -82 -8.5t-53 -24.5q-25 -20 -38 -51t-24 -90l-51 -332q-16 -98 -54 -153.5t-116 -90.5v-6q59 -31 81 -72t18 -114l-7 -58l-51 -331q-6 -49 -7 -62.5t-1 -26.5q4 -84 143 -83 h27l-27 -162h-190q-211 0 -211 188q0 39 2 60.5t6 50.5l55 358q6 33 7 41q12 104 -93 133z" />
<glyph unicode="|" horiz-adv-x="563" d="M39 -410l285 1776h202l-284 -1776h-203z" />
<glyph unicode="}" horiz-adv-x="718" d="M-80 -395l27 162h22q43 0 80 8t53 24q25 20 38.5 51t23.5 91l51 331q14 96 53 151.5t117 90.5v6q-59 29 -81.5 72t-16.5 117l6 57l53 332q6 51 7 63.5t1 24.5q-4 84 -145 84h-27l27 162h192q211 0 211 -189v-33q0 -10 -1 -20t-3 -22.5t-6 -34.5l-55 -359l-6 -41 q-12 -106 92 -135l-25 -162q-66 -16 -97.5 -56t-45.5 -118l-55 -356q-25 -158 -96.5 -229.5t-202.5 -71.5h-191z" />
<glyph unicode="~" d="M147 666q117 190 285 198q31 2 58.5 -2t62.5 -18q47 -16 90 -37l35 -16l35 -15l37 -16q35 -16 75.5 -26.5t71.5 -12.5q57 -4 103.5 25.5t93.5 97.5l137 -144q-123 -201 -316 -200q-23 0 -53.5 6t-58.5 16q-6 2 -5 1t-10 3l-36 17q-27 12 -90 43q-49 25 -94.5 39t-75.5 18 q-59 6 -106.5 -21.5t-100.5 -99.5z" />
<glyph unicode="&#xa1;" horiz-adv-x="681" d="M4 -389l143 895h351l-144 -895h-350zM186 799q0 80 54.5 133t134.5 53t133 -52t53 -134t-53 -136.5t-135 -54.5q-80 0 -133.5 55.5t-53.5 135.5z" />
<glyph unicode="&#xa2;" horiz-adv-x="968" d="M123 672q0 131 59.5 248.5t163.5 191.5q59 43 122.5 62.5t162.5 25.5l31 191h182l-33 -199q25 -6 43 -11t34.5 -11.5t34 -15.5t42.5 -24l-50 -276q-25 20 -55 39q-29 14 -66.5 26.5t-91.5 12.5q-51 0 -94 -19.5t-74.5 -54.5t-49 -82t-17.5 -102q0 -94 59.5 -156.5 t161.5 -62.5q47 0 81 4t56 10q25 8 43 16l-51 -262q-47 -20 -85 -26.5t-85 -10.5l-35 -209h-180l33 213q-176 41 -259 155t-83 327z" />
<glyph unicode="&#xa3;" d="M33 0l2 14q12 147 96 229.5t234 88.5q18 23 28 60.5t10 64.5q0 37 -4 64.5t-22 70.5h-264l14 143h156q23 0 57 -4q-12 51 -20.5 107.5t-8.5 87.5q0 469 498 469q106 0 191 -29t143.5 -82t90.5 -129t32 -168v-29q0 -12 -2 -26l-2 -14h-344q0 113 -31 161.5t-99 48.5 q-80 0 -105.5 -49t-25.5 -135q0 -31 4.5 -84t20.5 -125h307l-14 -143h-254h-2q-2 2 -14 4q4 -23 6 -59.5t2 -51.5q0 -43 -27 -97t-65 -91l114 -27l31 -10q10 -2 15 -4t9.5 -3t14.5 -1q41 0 64.5 15.5t39.5 74.5h330q-10 -80 -30.5 -147.5t-56.5 -117.5t-92 -78t-136 -28 q-72 0 -131.5 9.5t-135.5 25.5l-145 29q-25 4 -47.5 10t-36.5 6q-41 0 -53 -51h-342z" />
<glyph unicode="&#xa4;" d="M162 315l162 162q-29 53 -41.5 101.5t-12.5 103.5t12.5 104.5t41.5 102.5l-162 162l160 159l163 -161q100 53 203 53q57 0 105.5 -12.5t101.5 -40.5l164 161l160 -159l-162 -162q29 -53 41 -102.5t12 -104.5t-12.5 -103.5t-40.5 -101.5l162 -162l-160 -161l-164 163 q-53 -29 -101.5 -41t-105.5 -12q-104 0 -205 53l-161 -161zM500 684q0 -78 53 -134t135 -56q76 0 133.5 53t57.5 137q0 37 -15.5 70.5t-41 60.5t-60.5 42t-74 15q-37 0 -71.5 -14t-60.5 -39.5t-41 -60.5t-15 -74z" />
<glyph unicode="&#xa5;" d="M94 330l25 170h338l12 75l-37 107h-305l29 170h219l-172 514h409l50 -211q16 -72 23 -127t11 -94q4 -45 4 -80h9q6 35 24 80q14 39 40 94t67 127l118 211h418l-336 -514h242l-29 -170h-325l-76 -117l-10 -65h362l-26 -170h-363l-51 -330h-385l51 330h-336z" />
<glyph unicode="&#xa6;" horiz-adv-x="563" d="M39 -410l108 682h205l-110 -682h-203zM213 682l111 684h202l-108 -684h-205z" />
<glyph unicode="&#xa7;" horiz-adv-x="1247" d="M57 41h351q8 -86 40.5 -123t98.5 -37q55 0 90 28t35 75q0 53 -35 85.5t-105 53.5l-137 41q-139 41 -214 127t-75 207q0 150 111 250q37 31 75 49t103 39v8q-72 29 -113.5 94.5t-41.5 134.5q0 78 34.5 140.5t97 105.5t149.5 65.5t192 22.5q279 0 407 -188 q31 -47 43.5 -95.5t14.5 -128.5h-351q-2 92 -36.5 124t-100.5 32q-53 0 -84 -25.5t-31 -66.5q0 -47 33 -86t109 -58q72 -18 125 -35.5t93 -35t69.5 -37t54.5 -43.5q43 -43 65.5 -102.5t22.5 -126.5q0 -80 -20.5 -136.5t-56.5 -95.5t-86 -62.5t-107 -39.5v-4 q72 -53 100.5 -104.5t28.5 -117.5q0 -78 -34 -141t-96.5 -108t-149.5 -71t-191 -26q-141 0 -252 47.5t-164 133.5q-29 43 -43.5 96t-18.5 135zM469 518q0 -70 45 -118t111 -48q82 0 121.5 49.5t39.5 118.5q0 70 -43.5 115t-113.5 45q-68 0 -114 -47t-46 -115z" />
<glyph unicode="&#xa8;" horiz-adv-x="1085" d="M129 1270q0 74 52 126t126 52q76 0 128 -52.5t52 -125.5q0 -76 -52 -128t-128 -52q-74 0 -126 52t-52 128zM594 1270q0 74 52 126t126 52q76 0 128 -52.5t52 -125.5q0 -76 -52 -128t-128 -52q-74 0 -126 52t-52 128z" />
<glyph unicode="&#xa9;" horiz-adv-x="1511" d="M57 682q0 147 56.5 277.5t155 227.5t230 152.5t283.5 55.5q150 0 282 -55.5t230.5 -151.5t155.5 -226.5t57 -279.5q0 -150 -57 -279t-155.5 -225t-230.5 -151.5t-282 -55.5q-152 0 -283.5 55.5t-230 151.5t-155 226.5t-56.5 277.5zM203 682q0 -121 45 -227.5t124 -184 t184.5 -123t225.5 -45.5q119 0 224.5 45.5t184.5 123t124 184t45 227.5q0 123 -45 229.5t-124 185.5t-184.5 124t-224.5 45q-121 0 -226 -45t-184 -124t-124 -185.5t-45 -229.5zM408 696q0 82 31.5 154t88 123t132 80.5t161.5 29.5q53 0 95 -9t71 -19q33 -12 55 -29v-203 q-25 16 -55 29q-27 10 -62.5 19.5t-76.5 9.5q-88 0 -144.5 -52.5t-56.5 -146.5q0 -92 56.5 -145.5t146.5 -53.5q43 0 78 9.5t61 19.5q29 12 53 29v-199q-25 -16 -57 -29q-29 -10 -65.5 -18t-83.5 -8q-199 0 -313.5 108.5t-114.5 300.5z" />
<glyph unicode="&#xaa;" horiz-adv-x="897" d="M168 463l27 153h622l-26 -153h-623zM193 1044q0 74 24.5 136.5t67.5 108.5t101 71.5t128 25.5q59 0 98 -18t80 -65l6 2q0 4 -2 13t0 21l4 27h222l-97 -575h-217l4 22q2 4 4 11t9 18l20 32l-10 7q-27 -53 -76 -83t-110 -30q-117 0 -186.5 76t-69.5 200zM422 1063 q0 -53 27.5 -82t76.5 -29q66 0 102 39t36 107q0 53 -29 82.5t-80 29.5q-59 0 -96 -41t-37 -106z" />
<glyph unicode="&#xab;" horiz-adv-x="1128" d="M98 512l365 420l170 -144l-262 -296l198 -320l-186 -115zM510 506l371 420l172 -138l-260 -296l198 -316l-186 -123z" />
<glyph unicode="&#xac;" d="M164 575v218h1053v-637h-238v399q0 8 4 23q-14 -4 -22 -5h-23z" />
<glyph unicode="&#xad;" horiz-adv-x="843" d="M84 350l49 303h635l-49 -303h-635z" />
<glyph unicode="&#xae;" horiz-adv-x="1511" d="M57 682q0 147 56.5 277.5t155 227.5t230 152.5t283.5 55.5q150 0 282 -55.5t230.5 -151.5t155.5 -226.5t57 -279.5q0 -150 -57 -279t-155.5 -225t-230.5 -151.5t-282 -55.5q-152 0 -283.5 55.5t-230 151.5t-155 226.5t-56.5 277.5zM205 682q0 -121 45 -227.5t124 -184 t184.5 -123t225.5 -45.5q119 0 224.5 45.5t184.5 123t124 184t45 227.5q0 123 -45 229.5t-124 186.5t-184.5 126t-224.5 46q-121 0 -226 -46t-184 -126t-124 -186.5t-45 -229.5zM481 293v780h338q125 0 201 -67.5t76 -180.5q0 -88 -43 -140t-135 -85l26 -31q10 -10 27 -32 l153 -244h-245l-84 123l-29 43q-12 18 -21.5 35.5t-18.5 36t-21 47.5l-11 -3q6 -27 9.5 -45t4.5 -35.5t2 -36t1 -42.5v-123h-230zM709 721q10 4 14 4h49q41 0 63.5 21.5t22.5 62.5q0 35 -22.5 56.5t-63.5 21.5h-49q-4 0 -14 4q4 -15 4 -23v-127q0 -6 -4 -20z" />
<glyph unicode="&#xaf;" horiz-adv-x="1085" d="M178 1159l35 213h694l-35 -213h-694z" />
<glyph unicode="&#xb0;" horiz-adv-x="778" d="M205 1251q0 61 23.5 112.5t63.5 90.5t94.5 60.5t115.5 21.5t115.5 -21.5t94.5 -60.5t63.5 -90t23.5 -113q0 -61 -23.5 -112.5t-63.5 -90t-94.5 -60t-115.5 -21.5t-115.5 21.5t-94.5 59t-63.5 90t-23.5 113.5zM350 1249q0 -61 44 -105t108 -44q63 0 107 44t44 105 q0 63 -44 107.5t-107 44.5t-107.5 -44t-44.5 -108z" />
<glyph unicode="&#xb1;" d="M162 80v215h1003v-215h-1003zM162 750v215h366q8 0 23 -4q-4 14 -4 20v313h235v-313q0 -6 -4 -20q14 4 21 4h366v-215h-366q-6 0 -21 4q4 -14 4 -23v-309h-235v309q0 8 4 23q-14 -4 -23 -4h-366z" />
<glyph unicode="&#xb2;" horiz-adv-x="890" d="M98 547l430 436q78 80 78 127q0 29 -21.5 47.5t-54.5 18.5q-45 0 -67.5 -27t-32.5 -90h-229q8 145 97 226t243 81q139 0 223 -67.5t84 -178.5q0 -76 -37 -138t-127 -144l-51 -47q-20 -16 -33.5 -26.5t-42.5 -25.5l2 -8q43 8 66.5 10t68.5 2h115l-31 -196h-680z" />
<glyph unicode="&#xb3;" horiz-adv-x="868" d="M150 829h229q2 -66 24.5 -94t71.5 -28q41 0 66.5 23.5t25.5 64.5q0 88 -127 86l25 159q20 -2 36.5 -3t33.5 1q72 4 71 74q0 31 -22.5 51.5t-57.5 20.5q-70 0 -90 -82h-221q6 117 94 186.5t230 69.5q61 0 113.5 -16.5t90 -46t59 -69.5t21.5 -87q0 -68 -29.5 -108 t-105.5 -75v-6q66 -43 87.5 -76.5t21.5 -91.5q0 -123 -89.5 -194.5t-236.5 -71.5q-307 0 -321 313z" />
<glyph unicode="&#xb4;" horiz-adv-x="1085" d="M289 1133l160 305h348l-256 -305h-252z" />
<glyph unicode="&#xb5;" horiz-adv-x="1236" d="M4 -410q16 49 27.5 89t20.5 75t15.5 68t12.5 69l176 1096h209l-88 -555q-4 -23 -6 -42l-4 -38q-10 -94 31.5 -147t133.5 -58q127 -8 211 75t109 241l84 524h211l-158 -987h-203l15 86q2 23 22 76l25 76l-10 4q-55 -123 -124 -185.5t-163 -79.5q-147 -27 -234 103 q-4 4 -7 9t-9 11l-6 -2q0 -29 -1 -48t-3 -37.5t-4 -40t-8 -52.5l-27 -164q-4 -33 -12.5 -70.5t-24.5 -95.5h-211z" />
<glyph unicode="&#xb6;" horiz-adv-x="1261" d="M178 944q0 96 40 180t112 142q66 53 157 76.5t224 23.5h610l-29 -174h-194l-250 -1567h-150l242 1505l6 33q2 12 8 33q-23 -4 -34 -4h-142l-252 -1567h-147l156 973q4 25 6 35t8 33q-10 -2 -19.5 -3t-15.5 -1q-59 -4 -129 17t-117 58q-90 72 -90 207z" />
<glyph unicode="&#xb7;" d="M506 682q0 78 53 131t131 53t131 -53t53 -131t-53 -131t-131 -53t-131 53t-53 131z" />
<glyph unicode="&#xb8;" horiz-adv-x="1085" d="M240 -543l32 123q25 -4 59 -6t56 -2q70 0 113 21.5t49 68.5q0 23 -12.5 43.5t-59.5 20.5q-12 0 -26.5 -2.5t-26.5 -4.5q-14 -4 -29 -6l-47 37l166 250h129l-111 -176q8 2 19 4q10 2 21.5 3t27.5 1q57 0 93 -14.5t57.5 -38t29.5 -53t8 -58.5q0 -53 -25.5 -96t-71.5 -73.5 t-108.5 -47t-136.5 -16.5q-37 0 -74.5 3t-66.5 7q-35 6 -65 12z" />
<glyph unicode="&#xb9;" horiz-adv-x="634" d="M213 1155l51 193h342l-127 -809h-237l88 555l6 32q2 12 8 33q-23 -4 -33 -4h-98z" />
<glyph unicode="&#xba;" horiz-adv-x="890" d="M150 463l26 153h643l-26 -153h-643zM193 1059q0 70 27.5 130t76.5 104t115.5 68.5t146.5 24.5q154 0 243 -76.5t89 -205.5q0 -74 -27.5 -134.5t-78 -105.5t-120 -69.5t-151.5 -24.5q-147 0 -234 78t-87 211zM416 1053q0 -53 28.5 -85t81.5 -32q59 0 100.5 47t41.5 119 q0 112 -109 112q-66 0 -104.5 -45t-38.5 -116z" />
<glyph unicode="&#xbb;" horiz-adv-x="1124" d="M104 168l246 309l-213 303l170 127l316 -432l-349 -436zM520 190l248 306l-213 303l176 133l307 -438l-346 -437z" />
<glyph unicode="&#xbc;" horiz-adv-x="1673" d="M213 1155l51 193h342l-127 -809h-237l88 555l6 32q2 12 8 33q-23 -4 -33 -4h-98zM231 0l908 1348h176l-909 -1348h-175zM801 178l22 154l414 477h281l-64 -391q-4 -25 -6 -35t-8 -31q18 4 26 4h84l-28 -178h-107l-29 -178h-217l19 117q4 23 7 34t9 31q-23 -4 -35 -4h-368 zM1047 354l4 -8q29 8 46 9t48 1h82l22 125q10 49 19.5 81t31.5 85l-10 6q-53 -88 -109.5 -156.5t-133.5 -142.5z" />
<glyph unicode="&#xbd;" horiz-adv-x="1730" d="M213 1155l51 193h342l-127 -809h-237l88 555l6 32q2 12 8 33q-23 -4 -33 -4h-98zM231 0l908 1348h176l-909 -1348h-175zM854 0l428 436q41 41 58.5 70t17.5 55q0 29 -21.5 47.5t-54.5 18.5q-45 0 -67.5 -27t-32.5 -88h-230q2 57 12.5 93t34.5 73q51 74 123 107.5 t181 33.5q63 0 116.5 -18.5t93 -51t62 -77.5t22.5 -97q0 -78 -34.5 -141t-124.5 -143l-52 -47q-20 -18 -33.5 -28.5t-41.5 -25.5l2 -8q23 4 38 7.5t29.5 4.5t28.5 1h152l-29 -195h-678z" />
<glyph unicode="&#xbe;" horiz-adv-x="1918" d="M166 829h229q2 -66 24.5 -94t72.5 -28q41 0 66.5 23.5t25.5 64.5q0 88 -127 86l24 159q20 -2 37 -3t33 1q72 4 72 74q0 31 -22.5 51.5t-57.5 20.5q-70 0 -90 -82h-222q6 117 94.5 186.5t229.5 69.5q125 0 205 -61.5t80 -157.5q0 -68 -30 -108t-105 -75v-6 q66 -43 87 -76.5t21 -91.5q0 -123 -89 -194.5t-237 -71.5q-307 0 -321 313zM473 0l907 1348h176l-907 -1348h-176zM1042 178l25 154l414 477h278l-63 -391q-4 -25 -6 -35t-9 -31q18 4 27 4h84l-29 -178h-104l-29 -178h-219l21 117l6 33q2 12 8 32q-23 -4 -35 -4h-369z M1290 354l2 -8q31 8 47.5 9t46.5 1h82l25 125q8 49 17.5 81t31.5 85l-10 6q-53 -88 -108.5 -156.5t-133.5 -142.5z" />
<glyph unicode="&#xbf;" horiz-adv-x="1114" d="M16 -16q0 182 121 284q27 23 53.5 38.5t56 26.5t66.5 18t84 14l27 151h313l-57 -352q-35 4 -51 4h-47q-20 0 -55 -5t-58 -9q-59 -16 -92 -56.5t-33 -95.5q0 -59 35 -95t90 -36q53 0 87 25.5t56 85.5h320q-4 -84 -40 -155t-98.5 -121t-148.5 -77.5t-186 -27.5 q-211 0 -327 99t-116 284zM440 801q0 78 52.5 131t130.5 53q82 0 138 -54t56 -132q0 -80 -55 -135.5t-139 -55.5q-78 0 -130.5 55.5t-52.5 137.5z" />
<glyph unicode="&#xc0;" horiz-adv-x="1474" d="M-59 0l700 1366h457l288 -1366h-374l-51 270h-486l-121 -270h-413zM516 1804h348l140 -305h-252zM608 569q51 4 80 4h182q14 0 41 -4q-8 27 -11 40.5t-7 41.5l-29 166q-8 49 -13 82t-8 63.5t-4 64.5t-3 81l-13 2q-14 -49 -24.5 -84t-20.5 -65.5t-24.5 -63.5t-34.5 -80 l-43 -96q-10 -25 -17.5 -42t-14.5 -33.5t-15 -34t-21 -42.5z" />
<glyph unicode="&#xc1;" horiz-adv-x="1474" d="M-59 0l700 1366h457l288 -1366h-374l-51 270h-486l-121 -270h-413zM608 569q51 4 80 4h182q14 0 41 -4q-8 27 -11 40.5t-7 41.5l-29 166q-8 49 -13 82t-8 63.5t-4 64.5t-3 81l-13 2q-14 -49 -24.5 -84t-20.5 -65.5t-24.5 -63.5t-34.5 -80l-43 -96q-10 -25 -17.5 -42 t-14.5 -33.5t-15 -34t-21 -42.5zM709 1499l159 305h349l-256 -305h-252z" />
<glyph unicode="&#xc2;" horiz-adv-x="1474" d="M-59 0l700 1366h457l288 -1366h-374l-51 270h-486l-121 -270h-413zM485 1499l246 346h328l180 -346h-293l-69 170l-105 -170h-287zM608 569q51 4 80 4h182q14 0 41 -4q-8 27 -11 40.5t-7 41.5l-29 166q-8 49 -13 82t-8 63.5t-4 64.5t-3 81l-13 2q-14 -49 -24.5 -84 t-20.5 -65.5t-24.5 -63.5t-34.5 -80l-43 -96q-10 -25 -17.5 -42t-14.5 -33.5t-15 -34t-21 -42.5z" />
<glyph unicode="&#xc3;" horiz-adv-x="1474" d="M-59 0l700 1366h457l288 -1366h-374l-51 270h-486l-121 -270h-413zM500 1491q6 53 23.5 105.5t48 93.5t76.5 65.5t110 24.5q45 0 85 -14.5t74.5 -31t64.5 -30.5t54 -14q25 0 39.5 12t20.5 29q8 18 10 43h176q-6 -49 -20.5 -101.5t-42 -95.5t-71.5 -70.5t-108 -27.5 q-41 0 -84 14t-81.5 31.5t-71.5 32t-53 14.5q-29 0 -43.5 -12.5t-22.5 -28.5q-8 -18 -10 -39h-174zM608 569q51 4 80 4h182q14 0 41 -4q-8 27 -11 40.5t-7 41.5l-29 166q-8 49 -13 82t-8 63.5t-4 64.5t-3 81l-13 2q-14 -49 -24.5 -84t-20.5 -65.5t-24.5 -63.5t-34.5 -80 l-43 -96q-10 -25 -17.5 -42t-14.5 -33.5t-15 -34t-21 -42.5z" />
<glyph unicode="&#xc4;" horiz-adv-x="1474" d="M-59 0l700 1366h457l288 -1366h-374l-51 270h-486l-121 -270h-413zM516 1661q0 72 49 119t119 47q72 0 122 -47t50 -119t-50 -119t-122 -47q-70 0 -119 47t-49 119zM608 569q51 4 80 4h182q14 0 41 -4q-8 27 -11 40.5t-7 41.5l-29 166q-8 49 -13 82t-8 63.5t-4 64.5 t-3 81l-13 2q-14 -49 -24.5 -84t-20.5 -65.5t-24.5 -63.5t-34.5 -80l-43 -96q-10 -25 -17.5 -42t-14.5 -33.5t-15 -34t-21 -42.5zM942 1661q0 72 49 119t121 47t121 -47t49 -119t-49 -119t-121 -47t-121 47t-49 119z" />
<glyph unicode="&#xc5;" horiz-adv-x="1474" d="M-59 0l700 1366h457l288 -1366h-374l-51 270h-486l-121 -270h-413zM608 569q51 4 80 4h182q14 0 41 -4q-8 27 -11 40.5t-7 41.5l-29 166q-8 49 -13 82t-8 63.5t-4 64.5t-3 81l-13 2q-14 -49 -24.5 -84t-20.5 -65.5t-24.5 -63.5t-34.5 -80l-43 -96q-10 -25 -17.5 -42 t-14.5 -33.5t-15 -34t-21 -42.5zM651 1679q0 104 73 163t179 59t178 -58.5t72 -163.5q0 -102 -72 -160.5t-178 -58.5t-179 58.5t-73 160.5zM813 1677q0 -45 26.5 -67.5t63.5 -22.5t63.5 22.5t26.5 67.5q0 47 -26.5 68.5t-63.5 21.5t-63.5 -21.5t-26.5 -68.5z" />
<glyph unicode="&#xc6;" horiz-adv-x="1875" d="M-53 0l692 1366h868l62 -322h-361q-14 0 -43 5l23 -88l24 -136h404l57 -295h-356q-8 0 -18.5 1t-24.5 4q10 -29 13 -43.5t9 -47.5l31 -151h397l58 -293h-764l-49 264h-490l-125 -264h-407zM612 563q51 2 82 3t72 1h108q14 0 44 -4q-8 27 -11.5 39t-9.5 47l-27 146 q-8 43 -13 74.5t-8 60t-5 59.5t-4 76h-11q-14 -45 -24 -77t-21.5 -60.5t-25 -59t-33.5 -73.5l-35 -74q-12 -25 -20 -43.5t-16.5 -34.5t-18.5 -35.5t-23 -44.5z" />
<glyph unicode="&#xc7;" horiz-adv-x="1271" d="M125 618q0 168 58.5 316.5t168.5 259.5q209 213 527 213q264 0 436 -109l-53 -342q-43 33 -99 60q-47 23 -116.5 41t-161.5 18q-84 0 -155 -32.5t-121 -91t-77.5 -140.5t-27.5 -178q0 -166 97 -258t282 -92q78 0 145.5 19.5t138.5 59.5l-55 -344q-39 -18 -90 -30 q-43 -10 -103.5 -19.5t-134.5 -9.5h-12l-84 -135q8 2 19 4q10 2 21 3t28 1q57 0 93 -14.5t57.5 -38t29.5 -53t8 -58.5q0 -53 -25.5 -96t-71.5 -73.5t-108.5 -47t-136.5 -16.5q-37 0 -75 3t-66 7q-35 6 -66 12l33 123q25 -4 58.5 -6t56.5 -2q70 0 112.5 21.5t49.5 68.5 q0 23 -12.5 43.5t-59.5 20.5q-12 0 -26.5 -2.5t-26.5 -4.5q-14 -4 -29 -6l-47 37l145 219q-74 12 -139 35q-121 47 -207 133t-132 208t-46 273z" />
<glyph unicode="&#xc8;" horiz-adv-x="1097" d="M88 0l217 1366h793l-49 -313h-418l-27 -150l-6 -35q-2 -10 -8 -32q23 4 33 4h391l-53 -305h-414l-27 -160l-6 -35q-2 -10 -8 -31q23 4 33 4h387l-49 -313h-789zM365 1804h348l139 -305h-252z" />
<glyph unicode="&#xc9;" horiz-adv-x="1097" d="M88 0l217 1366h793l-49 -313h-418l-27 -150l-6 -35q-2 -10 -8 -32q23 4 33 4h391l-53 -305h-414l-27 -160l-6 -35q-2 -10 -8 -31q23 4 33 4h387l-49 -313h-789zM541 1499l159 305h349l-256 -305h-252z" />
<glyph unicode="&#xca;" horiz-adv-x="1097" d="M88 0l217 1366h793l-49 -313h-418l-27 -150l-6 -35q-2 -10 -8 -32q23 4 33 4h391l-53 -305h-414l-27 -160l-6 -35q-2 -10 -8 -31q23 4 33 4h387l-49 -313h-789zM326 1499l245 346h328l180 -346h-293l-69 170l-105 -170h-286z" />
<glyph unicode="&#xcb;" horiz-adv-x="1097" d="M88 0l217 1366h793l-49 -313h-418l-27 -150l-6 -35q-2 -10 -8 -32q23 4 33 4h391l-53 -305h-414l-27 -160l-6 -35q-2 -10 -8 -31q23 4 33 4h387l-49 -313h-789zM334 1661q0 72 49 119t119 47q72 0 122 -47t50 -119t-50.5 -119t-121.5 -47q-70 0 -119 47t-49 119z M760 1661q0 72 49 119t121 47t121 -47t49 -119t-49.5 -119t-120.5 -47q-72 0 -121 47t-49 119z" />
<glyph unicode="&#xcc;" horiz-adv-x="696" d="M88 0l217 1366h371l-219 -1366h-369zM137 1804h348l140 -305h-252z" />
<glyph unicode="&#xcd;" horiz-adv-x="696" d="M88 0l217 1366h371l-219 -1366h-369zM377 1499l160 305h348l-256 -305h-252z" />
<glyph unicode="&#xce;" horiz-adv-x="696" d="M88 0l217 1366h371l-219 -1366h-369zM133 1499l246 346h328l180 -346h-293l-70 170l-104 -170h-287z" />
<glyph unicode="&#xcf;" horiz-adv-x="696" d="M88 0l217 1366h371l-219 -1366h-369zM113 1661q0 72 49 119t119 47q72 0 122 -47t50 -119t-50.5 -119t-121.5 -47q-70 0 -119 47t-49 119zM539 1661q0 72 49 119t121 47t121 -47t49 -119t-49.5 -119t-120.5 -47q-72 0 -121 47t-49 119z" />
<glyph unicode="&#xd0;" horiz-adv-x="1443" d="M55 575l43 250h119l82 541h498q154 0 264 -45t182 -127t105.5 -195.5t33.5 -250.5q0 -113 -28.5 -218.5t-80.5 -194.5t-126 -157.5t-166 -111.5q-143 -66 -338 -66h-563l84 514q4 25 6 35t8 31q-20 -4 -31 -5h-92zM500 309q16 4 24 4h82q104 0 170 20.5t113 67.5 q59 59 93 155.5t34 213.5q0 141 -75 215t-216 74h-102l-23 -172l-6 -35q-2 -10 -10 -31q23 4 32 4h138l-43 -250h-164l-33 -200l-6 -35q-2 -10 -8 -31z" />
<glyph unicode="&#xd1;" horiz-adv-x="1601" d="M84 0l217 1366h420l225 -582q27 -70 45.5 -118t33.5 -92t29.5 -92t32.5 -117l11 2q2 72 5 121t7 95t10 98t17 126l75 559h371l-221 -1366h-416l-225 575q-27 70 -45.5 118t-33.5 92t-29.5 92.5t-32.5 115.5l-13 -2q-2 -72 -5 -121t-7 -95t-10 -97t-17 -125l-75 -553h-369 zM553 1491q6 53 23.5 105.5t48 93.5t77 65.5t109.5 24.5q45 0 85 -14.5t75 -31t64.5 -30.5t54.5 -14t39 12t20 29q8 18 10 43h176q-6 -49 -20.5 -101.5t-42 -95.5t-71.5 -70.5t-107 -27.5q-41 0 -84 14t-82 31.5t-72 32t-53 14.5q-29 0 -43.5 -12.5t-22.5 -28.5 q-8 -18 -10 -39h-174z" />
<glyph unicode="&#xd2;" horiz-adv-x="1716" d="M135 627q0 287 154 489q111 143 273.5 217t379.5 74q166 0 286 -42t210 -134q92 -94 140 -224t48 -280q0 -121 -41 -249t-112 -226q-100 -139 -274.5 -216t-391.5 -77q-137 0 -259 43t-214 127t-145.5 209t-53.5 289zM528 635q0 -143 74 -223q45 -49 111.5 -77t138.5 -28 q84 0 154.5 33t121 91t79 139t28.5 178q0 156 -82.5 243.5t-232.5 87.5q-84 0 -156 -33.5t-124 -93t-82 -141.5t-30 -176zM633 1825h348l139 -305h-252z" />
<glyph unicode="&#xd3;" horiz-adv-x="1716" d="M135 627q0 287 154 489q111 143 273.5 217t379.5 74q166 0 286 -42t210 -134q92 -94 140 -224t48 -280q0 -121 -41 -249t-112 -226q-100 -139 -274.5 -216t-391.5 -77q-137 0 -259 43t-214 127t-145.5 209t-53.5 289zM528 635q0 -143 74 -223q45 -49 111.5 -77t138.5 -28 q84 0 154.5 33t121 91t79 139t28.5 178q0 156 -82.5 243.5t-232.5 87.5q-84 0 -156 -33.5t-124 -93t-82 -141.5t-30 -176zM791 1520l159 305h348l-256 -305h-251z" />
<glyph unicode="&#xd4;" horiz-adv-x="1716" d="M135 627q0 287 154 489q111 143 273.5 217t379.5 74q166 0 286 -42t210 -134q92 -94 140 -224t48 -280q0 -121 -41 -249t-112 -226q-100 -139 -274.5 -216t-391.5 -77q-137 0 -259 43t-214 127t-145.5 209t-53.5 289zM528 635q0 -143 74 -223q45 -49 111.5 -77t138.5 -28 q84 0 154.5 33t121 91t79 139t28.5 178q0 156 -82.5 243.5t-232.5 87.5q-84 0 -156 -33.5t-124 -93t-82 -141.5t-30 -176zM575 1520l246 346h328l180 -346h-293l-69 170l-105 -170h-287z" />
<glyph unicode="&#xd5;" horiz-adv-x="1716" d="M135 627q0 287 154 489q111 143 273.5 217t379.5 74q166 0 286 -42t210 -134q92 -94 140 -224t48 -280q0 -121 -41 -249t-112 -226q-100 -139 -274.5 -216t-391.5 -77q-137 0 -259 43t-214 127t-145.5 209t-53.5 289zM528 635q0 -143 74 -223q45 -49 111.5 -77t138.5 -28 q84 0 154.5 33t121 91t79 139t28.5 178q0 156 -82.5 243.5t-232.5 87.5q-84 0 -156 -33.5t-124 -93t-82 -141.5t-30 -176zM563 1511q6 53 23.5 105.5t48.5 93.5t77 65.5t109 24.5q45 0 85 -14t75 -30.5t64.5 -31t54.5 -14.5t39 12.5t20 28.5q8 18 10 43h177 q-6 -49 -20.5 -101.5t-42.5 -95.5t-72 -70.5t-107 -27.5q-41 0 -84 14.5t-82 32t-71.5 31.5t-53.5 14q-29 0 -43 -12t-22 -29q-8 -18 -11 -39h-174z" />
<glyph unicode="&#xd6;" horiz-adv-x="1716" d="M135 627q0 287 154 489q111 143 273.5 217t379.5 74q166 0 286 -42t210 -134q92 -94 140 -224t48 -280q0 -121 -41 -249t-112 -226q-100 -139 -274.5 -216t-391.5 -77q-137 0 -259 43t-214 127t-145.5 209t-53.5 289zM528 635q0 -143 74 -223q45 -49 111.5 -77t138.5 -28 q84 0 154.5 33t121 91t79 139t28.5 178q0 156 -82.5 243.5t-232.5 87.5q-84 0 -156 -33.5t-124 -93t-82 -141.5t-30 -176zM586 1681q0 72 49 119t119 47q72 0 122 -47t50 -119t-50.5 -118.5t-121.5 -46.5q-70 0 -119 46.5t-49 118.5zM1012 1681q0 72 49 119t121 47t121 -47 t49 -119t-49.5 -118.5t-120.5 -46.5q-72 0 -121 46.5t-49 118.5z" />
<glyph unicode="&#xd7;" d="M207 358l293 295l18 15q6 6 19 14q-12 10 -18.5 14t-18.5 17l-293 295l160 159l323 -323l324 323l162 -159l-324 -326l324 -324l-162 -159l-324 323l-323 -323z" />
<glyph unicode="&#xd8;" horiz-adv-x="1697" d="M102 23l179 186q-78 94 -111 190.5t-33 227.5q0 340 215 559q111 111 254.5 166t335.5 55q123 0 223.5 -26.5t182.5 -80.5l174 181l139 -138l-172 -176q70 -88 104.5 -199.5t34.5 -240.5q0 -74 -15.5 -150.5t-44 -149.5t-68.5 -136.5t-87 -110.5q-104 -104 -262 -162.5 t-342 -58.5q-111 0 -204 26.5t-185 86.5l-180 -187zM530 637q0 -59 10 -96t35 -90q10 33 58.5 97t116 141t146.5 154t151 134q29 23 42 29t29 14q-47 29 -94 44t-102 15q-84 0 -156 -33.5t-124 -93t-82 -140.5t-30 -175zM662 365q57 -35 98 -46.5t96 -11.5q82 0 152.5 33 t121 91t79 139t28.5 178q0 47 -7.5 84t-27.5 90q-6 -20 -54 -79t-115.5 -132.5t-145.5 -151.5t-144 -139q-29 -25 -47 -36t-34 -19z" />
<glyph unicode="&#xd9;" horiz-adv-x="1474" d="M160 422q0 45 4 93t12 95l123 756h373l-127 -807q-4 -23 -5 -47.5t-1 -46.5q0 -170 182 -170q59 0 103 16.5t76 52t52.5 94t34.5 142.5l123 766h369l-136 -856q-37 -219 -141 -356q-80 -104 -195.5 -149.5t-301.5 -45.5q-141 0 -254 39t-185 111q-106 109 -106 313z M535 1804h348l139 -305h-252z" />
<glyph unicode="&#xda;" horiz-adv-x="1474" d="M160 422q0 45 4 93t12 95l123 756h373l-127 -807q-4 -23 -5 -47.5t-1 -46.5q0 -170 182 -170q59 0 103 16.5t76 52t52.5 94t34.5 142.5l123 766h369l-136 -856q-37 -219 -141 -356q-80 -104 -195.5 -149.5t-301.5 -45.5q-141 0 -254 39t-185 111q-106 109 -106 313z M696 1499l160 305h348l-256 -305h-252z" />
<glyph unicode="&#xdb;" horiz-adv-x="1474" d="M160 422q0 45 4 93t12 95l123 756h373l-127 -807q-4 -23 -5 -47.5t-1 -46.5q0 -170 182 -170q59 0 103 16.5t76 52t52.5 94t34.5 142.5l123 766h369l-136 -856q-37 -219 -141 -356q-80 -104 -195.5 -149.5t-301.5 -45.5q-141 0 -254 39t-185 111q-106 109 -106 313z M500 1499l245 346h328l180 -346h-292l-70 170l-105 -170h-286z" />
<glyph unicode="&#xdc;" horiz-adv-x="1474" d="M160 422q0 45 4 93t12 95l123 756h373l-127 -807q-4 -23 -5 -47.5t-1 -46.5q0 -170 182 -170q59 0 103 16.5t76 52t52.5 94t34.5 142.5l123 766h369l-136 -856q-37 -219 -141 -356q-80 -104 -195.5 -149.5t-301.5 -45.5q-141 0 -254 39t-185 111q-106 109 -106 313z M506 1661q0 72 49 119t119 47q72 0 122 -47t50 -119t-50.5 -119t-121.5 -47q-70 0 -119 47t-49 119zM932 1661q0 72 49 119t121 47t121 -47t49 -119t-49 -119t-121 -47t-121 47t-49 119z" />
<glyph unicode="&#xdd;" horiz-adv-x="1388" d="M150 1366h421l91 -248q14 -41 24 -68.5t17.5 -51t15.5 -50t20 -63.5h6q18 33 33 56.5t28 45t28.5 46t39.5 61.5l183 272h452l-614 -760l-104 -606h-371l94 610zM690 1499l160 305h348l-256 -305h-252z" />
<glyph unicode="&#xde;" horiz-adv-x="1294" d="M88 0l219 1366h371l-37 -217h172q55 0 130 -15.5t141.5 -58.5t113.5 -116.5t47 -190.5q0 -242 -113.5 -376t-355.5 -134h-272l-43 -258h-373zM541 549q20 4 30 4h93q49 0 77.5 5t49.5 17q29 18 45 54.5t16 79.5q0 137 -166 137h-92l-39 -232q-4 -25 -6 -35t-8 -30z" />
<glyph unicode="&#xdf;" horiz-adv-x="1318" d="M68 0l147 926q23 137 57.5 237.5t95 166t155.5 98t237 32.5q217 0 343 -85t126 -255q0 -121 -67.5 -208t-194.5 -101l-2 -8q72 -16 120 -51t76.5 -82t40.5 -103.5t12 -113.5q0 -215 -110.5 -340t-312.5 -125q-61 0 -110.5 4t-84.5 10q-39 6 -70 14l39 240q39 -8 66.5 -11 t62.5 -3q98 0 141.5 70.5t43.5 170.5q0 92 -47.5 151.5t-161.5 59.5h-15l39 252h41q39 0 72 5t57.5 20.5t37.5 41t13 68.5q0 31 -13 52.5t-33.5 36t-47 20.5t-53.5 6q-63 0 -100 -19.5t-59.5 -59.5t-35 -100.5t-24.5 -142.5l-141 -874h-340z" />
<glyph unicode="&#xe0;" horiz-adv-x="1474" d="M-59 0l700 1366h457l288 -1366h-374l-51 270h-486l-121 -270h-413zM516 1804h348l140 -305h-252zM608 569q51 4 80 4h182q14 0 41 -4q-8 27 -11 40.5t-7 41.5l-29 166q-8 49 -13 82t-8 63.5t-4 64.5t-3 81l-13 2q-14 -49 -24.5 -84t-20.5 -65.5t-24.5 -63.5t-34.5 -80 l-43 -96q-10 -25 -17.5 -42t-14.5 -33.5t-15 -34t-21 -42.5z" />
<glyph unicode="&#xe1;" horiz-adv-x="1474" d="M-59 0l700 1366h457l288 -1366h-374l-51 270h-486l-121 -270h-413zM608 569q51 4 80 4h182q14 0 41 -4q-8 27 -11 40.5t-7 41.5l-29 166q-8 49 -13 82t-8 63.5t-4 64.5t-3 81l-13 2q-14 -49 -24.5 -84t-20.5 -65.5t-24.5 -63.5t-34.5 -80l-43 -96q-10 -25 -17.5 -42 t-14.5 -33.5t-15 -34t-21 -42.5zM709 1499l159 305h349l-256 -305h-252z" />
<glyph unicode="&#xe2;" horiz-adv-x="1474" d="M-59 0l700 1366h457l288 -1366h-374l-51 270h-486l-121 -270h-413zM485 1499l246 346h328l180 -346h-293l-69 170l-105 -170h-287zM608 569q51 4 80 4h182q14 0 41 -4q-8 27 -11 40.5t-7 41.5l-29 166q-8 49 -13 82t-8 63.5t-4 64.5t-3 81l-13 2q-14 -49 -24.5 -84 t-20.5 -65.5t-24.5 -63.5t-34.5 -80l-43 -96q-10 -25 -17.5 -42t-14.5 -33.5t-15 -34t-21 -42.5z" />
<glyph unicode="&#xe3;" horiz-adv-x="1474" d="M-59 0l700 1366h457l288 -1366h-374l-51 270h-486l-121 -270h-413zM500 1491q6 53 23.5 105.5t48 93.5t76.5 65.5t110 24.5q45 0 85 -14.5t74.5 -31t64.5 -30.5t54 -14q25 0 39.5 12t20.5 29q8 18 10 43h176q-6 -49 -20.5 -101.5t-42 -95.5t-71.5 -70.5t-108 -27.5 q-41 0 -84 14t-81.5 31.5t-71.5 32t-53 14.5q-29 0 -43.5 -12.5t-22.5 -28.5q-8 -18 -10 -39h-174zM608 569q51 4 80 4h182q14 0 41 -4q-8 27 -11 40.5t-7 41.5l-29 166q-8 49 -13 82t-8 63.5t-4 64.5t-3 81l-13 2q-14 -49 -24.5 -84t-20.5 -65.5t-24.5 -63.5t-34.5 -80 l-43 -96q-10 -25 -17.5 -42t-14.5 -33.5t-15 -34t-21 -42.5z" />
<glyph unicode="&#xe4;" horiz-adv-x="1474" d="M-59 0l700 1366h457l288 -1366h-374l-51 270h-486l-121 -270h-413zM516 1661q0 72 49 119t119 47q72 0 122 -47t50 -119t-50 -119t-122 -47q-70 0 -119 47t-49 119zM608 569q51 4 80 4h182q14 0 41 -4q-8 27 -11 40.5t-7 41.5l-29 166q-8 49 -13 82t-8 63.5t-4 64.5 t-3 81l-13 2q-14 -49 -24.5 -84t-20.5 -65.5t-24.5 -63.5t-34.5 -80l-43 -96q-10 -25 -17.5 -42t-14.5 -33.5t-15 -34t-21 -42.5zM942 1661q0 72 49 119t121 47t121 -47t49 -119t-49 -119t-121 -47t-121 47t-49 119z" />
<glyph unicode="&#xe5;" horiz-adv-x="1474" d="M-59 0l700 1366h457l288 -1366h-374l-51 270h-486l-121 -270h-413zM608 569q51 4 80 4h182q14 0 41 -4q-8 27 -11 40.5t-7 41.5l-29 166q-8 49 -13 82t-8 63.5t-4 64.5t-3 81l-13 2q-14 -49 -24.5 -84t-20.5 -65.5t-24.5 -63.5t-34.5 -80l-43 -96q-10 -25 -17.5 -42 t-14.5 -33.5t-15 -34t-21 -42.5zM651 1679q0 104 73 163t179 59t178 -58.5t72 -163.5q0 -102 -72 -160.5t-178 -58.5t-179 58.5t-73 160.5zM813 1677q0 -45 26.5 -67.5t63.5 -22.5t63.5 22.5t26.5 67.5q0 47 -26.5 68.5t-63.5 21.5t-63.5 -21.5t-26.5 -68.5z" />
<glyph unicode="&#xe6;" horiz-adv-x="1875" d="M-53 0l692 1366h868l62 -322h-361q-14 0 -43 5l23 -88l24 -136h404l57 -295h-356q-8 0 -18.5 1t-24.5 4q10 -29 13 -43.5t9 -47.5l31 -151h397l58 -293h-764l-49 264h-490l-125 -264h-407zM612 563q51 2 82 3t72 1h108q14 0 44 -4q-8 27 -11.5 39t-9.5 47l-27 146 q-8 43 -13 74.5t-8 60t-5 59.5t-4 76h-11q-14 -45 -24 -77t-21.5 -60.5t-25 -59t-33.5 -73.5l-35 -74q-12 -25 -20 -43.5t-16.5 -34.5t-18.5 -35.5t-23 -44.5z" />
<glyph unicode="&#xe7;" horiz-adv-x="1271" d="M125 618q0 168 58.5 316.5t168.5 259.5q209 213 527 213q264 0 436 -109l-53 -342q-43 33 -99 60q-47 23 -116.5 41t-161.5 18q-84 0 -155 -32.5t-121 -91t-77.5 -140.5t-27.5 -178q0 -166 97 -258t282 -92q78 0 145.5 19.5t138.5 59.5l-55 -344q-39 -18 -90 -30 q-43 -10 -103.5 -19.5t-134.5 -9.5h-12l-84 -135q8 2 19 4q10 2 21 3t28 1q57 0 93 -14.5t57.5 -38t29.5 -53t8 -58.5q0 -53 -25.5 -96t-71.5 -73.5t-108.5 -47t-136.5 -16.5q-37 0 -75 3t-66 7q-35 6 -66 12l33 123q25 -4 58.5 -6t56.5 -2q70 0 112.5 21.5t49.5 68.5 q0 23 -12.5 43.5t-59.5 20.5q-12 0 -26.5 -2.5t-26.5 -4.5q-14 -4 -29 -6l-47 37l145 219q-74 12 -139 35q-121 47 -207 133t-132 208t-46 273z" />
<glyph unicode="&#xe8;" horiz-adv-x="1097" d="M88 0l217 1366h793l-49 -313h-418l-27 -150l-6 -35q-2 -10 -8 -32q23 4 33 4h391l-53 -305h-414l-27 -160l-6 -35q-2 -10 -8 -31q23 4 33 4h387l-49 -313h-789zM365 1804h348l139 -305h-252z" />
<glyph unicode="&#xe9;" horiz-adv-x="1097" d="M88 0l217 1366h793l-49 -313h-418l-27 -150l-6 -35q-2 -10 -8 -32q23 4 33 4h391l-53 -305h-414l-27 -160l-6 -35q-2 -10 -8 -31q23 4 33 4h387l-49 -313h-789zM541 1499l159 305h349l-256 -305h-252z" />
<glyph unicode="&#xea;" horiz-adv-x="1097" d="M88 0l217 1366h793l-49 -313h-418l-27 -150l-6 -35q-2 -10 -8 -32q23 4 33 4h391l-53 -305h-414l-27 -160l-6 -35q-2 -10 -8 -31q23 4 33 4h387l-49 -313h-789zM326 1499l245 346h328l180 -346h-293l-69 170l-105 -170h-286z" />
<glyph unicode="&#xeb;" horiz-adv-x="1097" d="M88 0l217 1366h793l-49 -313h-418l-27 -150l-6 -35q-2 -10 -8 -32q23 4 33 4h391l-53 -305h-414l-27 -160l-6 -35q-2 -10 -8 -31q23 4 33 4h387l-49 -313h-789zM334 1661q0 72 49 119t119 47q72 0 122 -47t50 -119t-50.5 -119t-121.5 -47q-70 0 -119 47t-49 119z M760 1661q0 72 49 119t121 47t121 -47t49 -119t-49.5 -119t-120.5 -47q-72 0 -121 47t-49 119z" />
<glyph unicode="&#xec;" horiz-adv-x="696" d="M88 0l217 1366h371l-219 -1366h-369zM137 1804h348l140 -305h-252z" />
<glyph unicode="&#xed;" horiz-adv-x="696" d="M88 0l217 1366h371l-219 -1366h-369zM377 1499l160 305h348l-256 -305h-252z" />
<glyph unicode="&#xee;" horiz-adv-x="696" d="M88 0l217 1366h371l-219 -1366h-369zM133 1499l246 346h328l180 -346h-293l-70 170l-104 -170h-287z" />
<glyph unicode="&#xef;" horiz-adv-x="696" d="M88 0l217 1366h371l-219 -1366h-369zM113 1661q0 72 49 119t119 47q72 0 122 -47t50 -119t-50.5 -119t-121.5 -47q-70 0 -119 47t-49 119zM539 1661q0 72 49 119t121 47t121 -47t49 -119t-49.5 -119t-120.5 -47q-72 0 -121 47t-49 119z" />
<glyph unicode="&#xf0;" horiz-adv-x="1443" d="M55 575l43 250h119l82 541h498q154 0 264 -45t182 -127t105.5 -195.5t33.5 -250.5q0 -113 -28.5 -218.5t-80.5 -194.5t-126 -157.5t-166 -111.5q-143 -66 -338 -66h-563l84 514q4 25 6 35t8 31q-20 -4 -31 -5h-92zM500 309q16 4 24 4h82q104 0 170 20.5t113 67.5 q59 59 93 155.5t34 213.5q0 141 -75 215t-216 74h-102l-23 -172l-6 -35q-2 -10 -10 -31q23 4 32 4h138l-43 -250h-164l-33 -200l-6 -35q-2 -10 -8 -31z" />
<glyph unicode="&#xf1;" horiz-adv-x="1601" d="M84 0l217 1366h420l225 -582q27 -70 45.5 -118t33.5 -92t29.5 -92t32.5 -117l11 2q2 72 5 121t7 95t10 98t17 126l75 559h371l-221 -1366h-416l-225 575q-27 70 -45.5 118t-33.5 92t-29.5 92.5t-32.5 115.5l-13 -2q-2 -72 -5 -121t-7 -95t-10 -97t-17 -125l-75 -553h-369 zM553 1491q6 53 23.5 105.5t48 93.5t77 65.5t109.5 24.5q45 0 85 -14.5t75 -31t64.5 -30.5t54.5 -14t39 12t20 29q8 18 10 43h176q-6 -49 -20.5 -101.5t-42 -95.5t-71.5 -70.5t-107 -27.5q-41 0 -84 14t-82 31.5t-72 32t-53 14.5q-29 0 -43.5 -12.5t-22.5 -28.5 q-8 -18 -10 -39h-174z" />
<glyph unicode="&#xf2;" horiz-adv-x="1716" d="M135 627q0 287 154 489q111 143 273.5 217t379.5 74q166 0 286 -42t210 -134q92 -94 140 -224t48 -280q0 -121 -41 -249t-112 -226q-100 -139 -274.5 -216t-391.5 -77q-137 0 -259 43t-214 127t-145.5 209t-53.5 289zM528 635q0 -143 74 -223q45 -49 111.5 -77t138.5 -28 q84 0 154.5 33t121 91t79 139t28.5 178q0 156 -82.5 243.5t-232.5 87.5q-84 0 -156 -33.5t-124 -93t-82 -141.5t-30 -176zM633 1825h348l139 -305h-252z" />
<glyph unicode="&#xf3;" horiz-adv-x="1716" d="M135 627q0 287 154 489q111 143 273.5 217t379.5 74q166 0 286 -42t210 -134q92 -94 140 -224t48 -280q0 -121 -41 -249t-112 -226q-100 -139 -274.5 -216t-391.5 -77q-137 0 -259 43t-214 127t-145.5 209t-53.5 289zM528 635q0 -143 74 -223q45 -49 111.5 -77t138.5 -28 q84 0 154.5 33t121 91t79 139t28.5 178q0 156 -82.5 243.5t-232.5 87.5q-84 0 -156 -33.5t-124 -93t-82 -141.5t-30 -176zM791 1520l159 305h348l-256 -305h-251z" />
<glyph unicode="&#xf4;" horiz-adv-x="1716" d="M135 627q0 287 154 489q111 143 273.5 217t379.5 74q166 0 286 -42t210 -134q92 -94 140 -224t48 -280q0 -121 -41 -249t-112 -226q-100 -139 -274.5 -216t-391.5 -77q-137 0 -259 43t-214 127t-145.5 209t-53.5 289zM528 635q0 -143 74 -223q45 -49 111.5 -77t138.5 -28 q84 0 154.5 33t121 91t79 139t28.5 178q0 156 -82.5 243.5t-232.5 87.5q-84 0 -156 -33.5t-124 -93t-82 -141.5t-30 -176zM575 1520l246 346h328l180 -346h-293l-69 170l-105 -170h-287z" />
<glyph unicode="&#xf5;" horiz-adv-x="1716" d="M135 627q0 287 154 489q111 143 273.5 217t379.5 74q166 0 286 -42t210 -134q92 -94 140 -224t48 -280q0 -121 -41 -249t-112 -226q-100 -139 -274.5 -216t-391.5 -77q-137 0 -259 43t-214 127t-145.5 209t-53.5 289zM528 635q0 -143 74 -223q45 -49 111.5 -77t138.5 -28 q84 0 154.5 33t121 91t79 139t28.5 178q0 156 -82.5 243.5t-232.5 87.5q-84 0 -156 -33.5t-124 -93t-82 -141.5t-30 -176zM563 1511q6 53 23.5 105.5t48.5 93.5t77 65.5t109 24.5q45 0 85 -14t75 -30.5t64.5 -31t54.5 -14.5t39 12.5t20 28.5q8 18 10 43h177 q-6 -49 -20.5 -101.5t-42.5 -95.5t-72 -70.5t-107 -27.5q-41 0 -84 14.5t-82 32t-71.5 31.5t-53.5 14q-29 0 -43 -12t-22 -29q-8 -18 -11 -39h-174z" />
<glyph unicode="&#xf6;" horiz-adv-x="1716" d="M135 627q0 287 154 489q111 143 273.5 217t379.5 74q166 0 286 -42t210 -134q92 -94 140 -224t48 -280q0 -121 -41 -249t-112 -226q-100 -139 -274.5 -216t-391.5 -77q-137 0 -259 43t-214 127t-145.5 209t-53.5 289zM528 635q0 -143 74 -223q45 -49 111.5 -77t138.5 -28 q84 0 154.5 33t121 91t79 139t28.5 178q0 156 -82.5 243.5t-232.5 87.5q-84 0 -156 -33.5t-124 -93t-82 -141.5t-30 -176zM586 1681q0 72 49 119t119 47q72 0 122 -47t50 -119t-50.5 -118.5t-121.5 -46.5q-70 0 -119 46.5t-49 118.5zM1012 1681q0 72 49 119t121 47t121 -47 t49 -119t-49.5 -118.5t-120.5 -46.5q-72 0 -121 46.5t-49 118.5z" />
<glyph unicode="&#xf7;" d="M188 575v218h1004v-218h-1004zM547 301q0 59 42 100t101 41t101.5 -41t42.5 -100t-42 -101t-104 -42q-59 0 -100 42t-41 101zM547 1065q0 59 42 100t101 41t101.5 -41t42.5 -100t-42 -101t-104 -42q-59 0 -100 42t-41 101z" />
<glyph unicode="&#xf8;" horiz-adv-x="1697" d="M102 23l179 186q-78 94 -111 190.5t-33 227.5q0 340 215 559q111 111 254.5 166t335.5 55q123 0 223.5 -26.5t182.5 -80.5l174 181l139 -138l-172 -176q70 -88 104.5 -199.5t34.5 -240.5q0 -74 -15.5 -150.5t-44 -149.5t-68.5 -136.5t-87 -110.5q-104 -104 -262 -162.5 t-342 -58.5q-111 0 -204 26.5t-185 86.5l-180 -187zM530 637q0 -59 10 -96t35 -90q10 33 58.5 97t116 141t146.5 154t151 134q29 23 42 29t29 14q-47 29 -94 44t-102 15q-84 0 -156 -33.5t-124 -93t-82 -140.5t-30 -175zM662 365q57 -35 98 -46.5t96 -11.5q82 0 152.5 33 t121 91t79 139t28.5 178q0 47 -7.5 84t-27.5 90q-6 -20 -54 -79t-115.5 -132.5t-145.5 -151.5t-144 -139q-29 -25 -47 -36t-34 -19z" />
<glyph unicode="&#xf9;" horiz-adv-x="1474" d="M160 422q0 45 4 93t12 95l123 756h373l-127 -807q-4 -23 -5 -47.5t-1 -46.5q0 -170 182 -170q59 0 103 16.5t76 52t52.5 94t34.5 142.5l123 766h369l-136 -856q-37 -219 -141 -356q-80 -104 -195.5 -149.5t-301.5 -45.5q-141 0 -254 39t-185 111q-106 109 -106 313z M535 1804h348l139 -305h-252z" />
<glyph unicode="&#xfa;" horiz-adv-x="1474" d="M160 422q0 45 4 93t12 95l123 756h373l-127 -807q-4 -23 -5 -47.5t-1 -46.5q0 -170 182 -170q59 0 103 16.5t76 52t52.5 94t34.5 142.5l123 766h369l-136 -856q-37 -219 -141 -356q-80 -104 -195.5 -149.5t-301.5 -45.5q-141 0 -254 39t-185 111q-106 109 -106 313z M696 1499l160 305h348l-256 -305h-252z" />
<glyph unicode="&#xfb;" horiz-adv-x="1474" d="M160 422q0 45 4 93t12 95l123 756h373l-127 -807q-4 -23 -5 -47.5t-1 -46.5q0 -170 182 -170q59 0 103 16.5t76 52t52.5 94t34.5 142.5l123 766h369l-136 -856q-37 -219 -141 -356q-80 -104 -195.5 -149.5t-301.5 -45.5q-141 0 -254 39t-185 111q-106 109 -106 313z M500 1499l245 346h328l180 -346h-292l-70 170l-105 -170h-286z" />
<glyph unicode="&#xfc;" horiz-adv-x="1474" d="M160 422q0 45 4 93t12 95l123 756h373l-127 -807q-4 -23 -5 -47.5t-1 -46.5q0 -170 182 -170q59 0 103 16.5t76 52t52.5 94t34.5 142.5l123 766h369l-136 -856q-37 -219 -141 -356q-80 -104 -195.5 -149.5t-301.5 -45.5q-141 0 -254 39t-185 111q-106 109 -106 313z M506 1661q0 72 49 119t119 47q72 0 122 -47t50 -119t-50.5 -119t-121.5 -47q-70 0 -119 47t-49 119zM932 1661q0 72 49 119t121 47t121 -47t49 -119t-49 -119t-121 -47t-121 47t-49 119z" />
<glyph unicode="&#xfd;" horiz-adv-x="1388" d="M150 1366h421l91 -248q14 -41 24 -68.5t17.5 -51t15.5 -50t20 -63.5h6q18 33 33 56.5t28 45t28.5 46t39.5 61.5l183 272h452l-614 -760l-104 -606h-371l94 610zM690 1499l160 305h348l-256 -305h-252z" />
<glyph unicode="&#xfe;" horiz-adv-x="1294" d="M88 0l219 1366h371l-37 -217h172q55 0 130 -15.5t141.5 -58.5t113.5 -116.5t47 -190.5q0 -242 -113.5 -376t-355.5 -134h-272l-43 -258h-373zM541 549q20 4 30 4h93q49 0 77.5 5t49.5 17q29 18 45 54.5t16 79.5q0 137 -166 137h-92l-39 -232q-4 -25 -6 -35t-8 -30z" />
<glyph unicode="&#xff;" horiz-adv-x="1388" d="M150 1366h421l91 -248q14 -41 24 -68.5t17.5 -51t15.5 -50t20 -63.5h6q18 33 33 56.5t28 45t28.5 46t39.5 61.5l183 272h452l-614 -760l-104 -606h-371l94 610zM453 1661q0 72 49 119t119 47q72 0 122 -47t50 -119t-50.5 -119t-121.5 -47q-70 0 -119 47t-49 119z M879 1661q0 72 49 119t121 47t121 -47t49 -119t-49.5 -119t-120.5 -47q-72 0 -121 47t-49 119z" />
<glyph unicode="&#x152;" horiz-adv-x="2103" d="M135 618q0 178 55.5 322.5t159 248t247.5 159t323 55.5q133 0 227 -34t182 -114l6 2q-2 10 -2 17v12q0 2 1 9.5t3 19.5l11 51h784l-51 -313h-418l-25 -152l-6 -35q-2 -10 -8 -30q23 4 33 4h389l-49 -305h-414l-27 -160q-4 -23 -7 -33t-9 -33q23 4 33 4h389l-51 -313h-783 l9 47q2 23 24 64l-8 6q-160 -152 -393 -152q-258 0 -428 168q-96 92 -146.5 218t-50.5 267zM524 631q0 -72 24.5 -131.5t67.5 -101.5t104.5 -65.5t135.5 -23.5q66 0 134.5 29t115.5 74q59 59 95 151t36 191q0 147 -86 234t-231 87q-84 0 -157 -33.5t-126 -94t-83 -141.5 t-30 -175z" />
<glyph unicode="&#x153;" horiz-adv-x="2103" d="M135 618q0 178 55.5 322.5t159 248t247.5 159t323 55.5q133 0 227 -34t182 -114l6 2q-2 10 -2 17v12q0 2 1 9.5t3 19.5l11 51h784l-51 -313h-418l-25 -152l-6 -35q-2 -10 -8 -30q23 4 33 4h389l-49 -305h-414l-27 -160q-4 -23 -7 -33t-9 -33q23 4 33 4h389l-51 -313h-783 l9 47q2 23 24 64l-8 6q-160 -152 -393 -152q-258 0 -428 168q-96 92 -146.5 218t-50.5 267zM524 631q0 -72 24.5 -131.5t67.5 -101.5t104.5 -65.5t135.5 -23.5q66 0 134.5 29t115.5 74q59 59 95 151t36 191q0 147 -86 234t-231 87q-84 0 -157 -33.5t-126 -94t-83 -141.5 t-30 -175z" />
<glyph unicode="&#x178;" horiz-adv-x="1388" d="M150 1366h421l91 -248q14 -41 24 -68.5t17.5 -51t15.5 -50t20 -63.5h6q18 33 33 56.5t28 45t28.5 46t39.5 61.5l183 272h452l-614 -760l-104 -606h-371l94 610zM453 1661q0 72 49 119t119 47q72 0 122 -47t50 -119t-50.5 -119t-121.5 -47q-70 0 -119 47t-49 119z M879 1661q0 72 49 119t121 47t121 -47t49 -119t-49.5 -119t-120.5 -47q-72 0 -121 47t-49 119z" />
<glyph unicode="&#x2c6;" horiz-adv-x="1085" d="M145 1133l267 346h327l201 -346h-322l-61 170l-104 -170h-308z" />
<glyph unicode="&#x2dc;" horiz-adv-x="1085" d="M170 1108q6 53 23.5 105.5t47 93.5t72.5 65.5t105 24.5q43 0 81 -14.5t70.5 -31t60 -30.5t52.5 -14q23 0 37 12t20 29q8 18 9 43h167q-6 -49 -19 -101.5t-41 -95.5t-69 -70.5t-102 -27.5q-39 0 -79 14t-78 31.5t-68.5 32t-50.5 14.5q-27 0 -40.5 -12.5t-21.5 -28.5 q-8 -18 -10 -39h-166z" />
<glyph unicode="&#x2000;" horiz-adv-x="950" />
<glyph unicode="&#x2001;" horiz-adv-x="1901" />
<glyph unicode="&#x2002;" horiz-adv-x="950" />
<glyph unicode="&#x2003;" horiz-adv-x="1901" />
<glyph unicode="&#x2004;" horiz-adv-x="633" />
<glyph unicode="&#x2005;" horiz-adv-x="475" />
<glyph unicode="&#x2006;" horiz-adv-x="316" />
<glyph unicode="&#x2007;" horiz-adv-x="316" />
<glyph unicode="&#x2008;" horiz-adv-x="237" />
<glyph unicode="&#x2009;" horiz-adv-x="380" />
<glyph unicode="&#x200a;" horiz-adv-x="105" />
<glyph unicode="&#x2010;" horiz-adv-x="843" d="M84 350l49 303h635l-49 -303h-635z" />
<glyph unicode="&#x2011;" horiz-adv-x="843" d="M84 350l49 303h635l-49 -303h-635z" />
<glyph unicode="&#x2012;" horiz-adv-x="843" d="M84 350l49 303h635l-49 -303h-635z" />
<glyph unicode="&#x2013;" horiz-adv-x="1337" d="M84 381l39 242h1132l-36 -242h-1135z" />
<glyph unicode="&#x2014;" horiz-adv-x="1705" d="M82 381l41 242h1501l-37 -242h-1505z" />
<glyph unicode="&#x2018;" horiz-adv-x="638" d="M154 831l260 601h256l-181 -601h-335z" />
<glyph unicode="&#x2019;" horiz-adv-x="651" d="M154 836l190 596h338l-272 -596h-256z" />
<glyph unicode="&#x201a;" horiz-adv-x="622" d="M-51 -279l203 596h350l-289 -596h-264z" />
<glyph unicode="&#x201c;" horiz-adv-x="1099" d="M154 836l278 596h270l-198 -596h-350zM575 836l287 596h268l-202 -596h-353z" />
<glyph unicode="&#x201d;" horiz-adv-x="1095" d="M154 836l198 596h350l-284 -596h-264zM575 836l201 596h350l-278 -596h-273z" />
<glyph unicode="&#x201e;" horiz-adv-x="1042" d="M-51 -285l198 598h351l-285 -598h-264zM371 -285l200 598h351l-279 -598h-272z" />
<glyph unicode="&#x2022;" horiz-adv-x="747" d="M61 682q0 72 27 134.5t74 109.5t108 73.5t133 26.5t134.5 -26.5t109.5 -73.5t74 -109.5t27 -134.5t-27 -133.5t-74 -108.5t-109.5 -73.5t-134.5 -26.5t-133 26.5t-108 73.5t-74 108.5t-27 133.5z" />
<glyph unicode="&#x2026;" horiz-adv-x="1673" d="M78 160q0 82 56 138t140 56q39 0 73 -14t59.5 -41t40 -61.5t14.5 -75.5q0 -84 -53.5 -137.5t-139.5 -53.5t-138 51.5t-52 137.5zM596 160q0 82 56.5 138t140.5 56q82 0 135 -55t53 -137q0 -86 -53.5 -138.5t-139.5 -52.5t-139 51.5t-53 137.5zM1116 160q0 82 56.5 138 t140.5 56q39 0 72.5 -14t59 -41t40 -61.5t14.5 -75.5q0 -86 -53 -138.5t-139 -52.5t-138.5 51.5t-52.5 137.5z" />
<glyph unicode="&#x202f;" horiz-adv-x="380" />
<glyph unicode="&#x2039;" horiz-adv-x="704" d="M100 512l365 420l170 -144l-266 -296l196 -320l-180 -115z" />
<glyph unicode="&#x203a;" horiz-adv-x="710" d="M109 190l243 306l-211 303l176 133l308 -438l-346 -437z" />
<glyph unicode="&#x205f;" horiz-adv-x="475" />
<glyph unicode="&#x20ac;" d="M129 500l25 133h120q2 35 7.5 67.5t15.5 69.5h-135l26 135h140q37 117 91 208t131 153.5t179 95.5t238 33q68 0 127 -10.5t102 -22.5q51 -14 94 -31l-37 -301q-29 25 -69 45q-37 16 -93.5 31.5t-134.5 15.5q-127 0 -191.5 -54t-100.5 -163h391l-27 -135h-393 q-6 -29 -11.5 -63.5t-9.5 -73.5h406l-25 -133h-391q0 -123 59.5 -187.5t188.5 -64.5q70 0 130 10t108 23q53 14 98 34l-37 -305q-47 -12 -100 -20q-45 -8 -98.5 -13.5t-106.5 -5.5q-152 0 -261.5 39t-180 108.5t-103.5 167t-33 214.5h-139z" />
<glyph unicode="&#x2122;" horiz-adv-x="1824" d="M215 1343l31 195h569l-33 -195h-168l-94 -583h-229l84 524q4 23 6 33t8 31q-23 -2 -33 -3.5t-32 -1.5h-109zM737 758l256 780h250l35 -184q6 -35 11 -60.5t8 -48t4.5 -48.5t3.5 -62h10q12 37 21.5 61.5t18.5 48t20 48t28 61.5l90 184h246l43 -780h-232l-4 225 q-2 23 -2 45v92q0 14 4 53t8 84l-10 5q-16 -47 -28.5 -80t-24.5 -62.5t-27.5 -61.5t-35.5 -75l-109 -225h-121l-45 221q-8 43 -13 74.5t-9.5 60.5t-7.5 59.5t-5 75.5h-10q-8 -45 -14 -76.5t-13.5 -60.5t-16.5 -59.5t-24 -73.5l-69 -221h-236z" />
<glyph unicode="&#x25fc;" horiz-adv-x="1361" d="M0 0v1362h1362v-1362h-1362z" />
<glyph unicode="&#xfb01;" horiz-adv-x="1290" d="M92 692l41 256h146l12 76q12 78 39.5 146.5t66.5 115.5q61 78 167 120t235 42q190 0 307 -82t127 -225q4 -51 -2 -84l-4 -25h-346l2 10q4 14 4 23v29q0 90 -105 90q-125 0 -153 -166l-6 -35q-2 -14 -5 -20l-6 -19q23 4 33 4h152l-41 -256h-178l-111 -692h-340l100 629 l6 33q2 12 11 34q-23 -4 -35 -4h-117zM719 0l151 948h342l-153 -948h-340z" />
<glyph unicode="&#xfb02;" horiz-adv-x="1284" d="M92 692l41 256h146l12 74q12 78 39.5 146.5t66.5 115.5q61 78 167 120t235 42q190 0 307 -82t127 -225q2 -23 2 -43.5t-4 -40.5l-172 -1055h-340l164 1040q4 14 4 25v29q0 88 -105 88q-125 0 -153 -166l-6 -33q-2 -14 -5 -20l-6 -19q23 4 33 4h152l-41 -256h-178 l-111 -692h-340l100 629l6 33q2 12 11 34q-23 -4 -35 -4h-117z" />
</font>
</defs>
</svg>
